<?xml version="1.0" encoding="UTF-8" standalone="no"?>
<!-- Created with Inkscape (http://www.inkscape.org/) -->

<svg
   xmlns:dc="http://purl.org/dc/elements/1.1/"
   xmlns:cc="http://creativecommons.org/ns#"
   xmlns:rdf="http://www.w3.org/1999/02/22-rdf-syntax-ns#"
   xmlns:svg="http://www.w3.org/2000/svg"
   xmlns="http://www.w3.org/2000/svg"
   xmlns:sodipodi="http://sodipodi.sourceforge.net/DTD/sodipodi-0.dtd"
   xmlns:inkscape="http://www.inkscape.org/namespaces/inkscape"
   id="svg4362"
   version="1.1"
   inkscape:version="0.91 r13725"
   xml:space="preserve"
   width="720"
   height="450"
   viewBox="0 0 720 450"
   sodipodi:docname="Combined_fitness_over_time_no_dashed.svg"><metadata
     id="metadata4368"><rdf:RDF><cc:Work
         rdf:about=""><dc:format>image/svg+xml</dc:format><dc:type
           rdf:resource="http://purl.org/dc/dcmitype/StillImage" /><dc:title></dc:title></cc:Work></rdf:RDF></metadata><defs
     id="defs4366"><clipPath
       clipPathUnits="userSpaceOnUse"
       id="clipPath4380"><path
         d="M 0,0 576,0 576,360 0,360 0,0 Z"
         id="path4382"
         inkscape:connector-curvature="0" /></clipPath><clipPath
       clipPathUnits="userSpaceOnUse"
       id="clipPath4396"><path
         d="m 46.78,37.28 422.97,0 0,308.32 -422.97,0 0,-308.32 z"
         id="path4398"
         inkscape:connector-curvature="0" /></clipPath></defs><sodipodi:namedview
     pagecolor="#ffffff"
     bordercolor="#666666"
     borderopacity="1"
     objecttolerance="10"
     gridtolerance="10"
     guidetolerance="10"
     inkscape:pageopacity="0"
     inkscape:pageshadow="2"
     inkscape:window-width="640"
     inkscape:window-height="480"
     id="namedview4364"
     showgrid="false"
     inkscape:zoom="0.52444444"
     inkscape:cx="360"
     inkscape:cy="225"
     inkscape:window-x="0"
     inkscape:window-y="0"
     inkscape:window-maximized="0"
     inkscape:current-layer="g4370" /><g
     id="g4370"
     inkscape:groupmode="layer"
     inkscape:label="Combined_fitness_over_time_no_dashed"
     transform="matrix(1.25,0,0,-1.25,0,450)"><g
       id="g4372" /><g
       id="g4374" /><g
       id="g4376"><g
         id="g4378"
         clip-path="url(#clipPath4380)"><path
           d="M 0,0 576,0 576,360 0,360 0,0 Z"
           style="fill:#ffffff;fill-opacity:1;fill-rule:nonzero;stroke:#ffffff;stroke-width:1.05999994;stroke-linecap:round;stroke-linejoin:round;stroke-miterlimit:10;stroke-dasharray:none;stroke-opacity:1"
           id="path4384"
           inkscape:connector-curvature="0" /></g></g><g
       id="g4386" /><g
       id="g4388" /><g
       id="g4390" /><g
       id="g4392"><g
         id="g4394"
         clip-path="url(#clipPath4396)"><path
           d="m 46.78,37.28 422.97,0 0,308.32 -422.97,0 0,-308.32 z"
           style="fill:#e5e5e5;fill-opacity:1;fill-rule:nonzero;stroke:none"
           id="path4400"
           inkscape:connector-curvature="0" /><path
           d="m 46.78,235.32 422.98,0"
           style="fill:none;stroke:#f2f2f2;stroke-width:0.52999997;stroke-linecap:butt;stroke-linejoin:round;stroke-miterlimit:10;stroke-dasharray:none;stroke-opacity:1"
           id="path4402"
           inkscape:connector-curvature="0" /><path
           d="m 110.68,37.28 0,308.32"
           style="fill:none;stroke:#f2f2f2;stroke-width:0.52999997;stroke-linecap:butt;stroke-linejoin:round;stroke-miterlimit:10;stroke-dasharray:none;stroke-opacity:1"
           id="path4404"
           inkscape:connector-curvature="0" /><path
           d="m 207.78,37.28 0,308.32"
           style="fill:none;stroke:#f2f2f2;stroke-width:0.52999997;stroke-linecap:butt;stroke-linejoin:round;stroke-miterlimit:10;stroke-dasharray:none;stroke-opacity:1"
           id="path4406"
           inkscape:connector-curvature="0" /><path
           d="m 304.88,37.28 0,308.32"
           style="fill:none;stroke:#f2f2f2;stroke-width:0.52999997;stroke-linecap:butt;stroke-linejoin:round;stroke-miterlimit:10;stroke-dasharray:none;stroke-opacity:1"
           id="path4408"
           inkscape:connector-curvature="0" /><path
           d="m 401.98,37.28 0,308.32"
           style="fill:none;stroke:#f2f2f2;stroke-width:0.52999997;stroke-linecap:butt;stroke-linejoin:round;stroke-miterlimit:10;stroke-dasharray:none;stroke-opacity:1"
           id="path4410"
           inkscape:connector-curvature="0" /><path
           d="m 46.78,125.05 422.98,0"
           style="fill:none;stroke:#ffffff;stroke-width:1.05999994;stroke-linecap:butt;stroke-linejoin:round;stroke-miterlimit:10;stroke-dasharray:none;stroke-opacity:1"
           id="path4412"
           inkscape:connector-curvature="0" /><path
           d="m 46.78,345.6 422.98,0"
           style="fill:none;stroke:#ffffff;stroke-width:1.05999994;stroke-linecap:butt;stroke-linejoin:round;stroke-miterlimit:10;stroke-dasharray:none;stroke-opacity:1"
           id="path4414"
           inkscape:connector-curvature="0" /><path
           d="m 62.12,37.28 0,308.32"
           style="fill:none;stroke:#ffffff;stroke-width:1.05999994;stroke-linecap:butt;stroke-linejoin:round;stroke-miterlimit:10;stroke-dasharray:none;stroke-opacity:1"
           id="path4416"
           inkscape:connector-curvature="0" /><path
           d="m 159.23,37.28 0,308.32"
           style="fill:none;stroke:#ffffff;stroke-width:1.05999994;stroke-linecap:butt;stroke-linejoin:round;stroke-miterlimit:10;stroke-dasharray:none;stroke-opacity:1"
           id="path4418"
           inkscape:connector-curvature="0" /><path
           d="m 256.33,37.28 0,308.32"
           style="fill:none;stroke:#ffffff;stroke-width:1.05999994;stroke-linecap:butt;stroke-linejoin:round;stroke-miterlimit:10;stroke-dasharray:none;stroke-opacity:1"
           id="path4420"
           inkscape:connector-curvature="0" /><path
           d="m 353.43,37.28 0,308.32"
           style="fill:none;stroke:#ffffff;stroke-width:1.05999994;stroke-linecap:butt;stroke-linejoin:round;stroke-miterlimit:10;stroke-dasharray:none;stroke-opacity:1"
           id="path4422"
           inkscape:connector-curvature="0" /><path
           d="m 450.53,37.28 0,308.32"
           style="fill:none;stroke:#ffffff;stroke-width:1.05999994;stroke-linecap:butt;stroke-linejoin:round;stroke-miterlimit:10;stroke-dasharray:none;stroke-opacity:1"
           id="path4424"
           inkscape:connector-curvature="0" /><path
           d="M 72.3,360 73.78,258.24 76.69,360"
           style="fill:none;stroke:#f8766d;stroke-width:1.05999994;stroke-linecap:butt;stroke-linejoin:round;stroke-miterlimit:1;stroke-dasharray:none;stroke-opacity:1"
           id="path4426"
           inkscape:connector-curvature="0" /><path
           d="m 78.65,360 2.89,-98.99 3.89,86.07 3.88,-126.09 3.89,20.27 3.88,17.01 3.89,0 3.88,-37.05 3.88,29.18 3.89,9.4 3.88,-16.22 3.89,0 3.88,0 3.88,9.43 3.89,-28.76 3.88,-7.48 3.89,-6.72 3.88,0 3.88,7.97 3.89,5.65 2.91,136.33"
           style="fill:none;stroke:#f8766d;stroke-width:1.05999994;stroke-linecap:butt;stroke-linejoin:round;stroke-miterlimit:1;stroke-dasharray:none;stroke-opacity:1"
           id="path4428"
           inkscape:connector-curvature="0" /><path
           d="m 160.01,360 3.1,-179.93 3.88,13.73 3.89,1.12 3.88,-2.95 3.89,13.82 3.88,0 3.88,0 3.89,0 3.88,21 3.89,-25.34 3.88,-21.91 3.88,0 3.89,7.4 3.88,-4.42 3.89,4.09 3.88,-14.6 3.89,5.14 3.88,-8.4 3.88,-19.23 3.89,0 3.88,10.74 3.89,0 3.88,6.35 3.88,-9.46 3.89,17.56 3.88,-20.49 3.89,30.42 3.88,-28.64 3.88,89.07 3.89,-92.17 3.88,-11.37 3.89,-8.58 3.88,10.32 3.88,5.47 3.89,8.99 3.88,-23.7 3.89,-0.24 3.88,18.97 3.88,-11.17 3.89,0 3.88,128.87 3.89,-143.13 3.88,14.82 3.88,2.86 3.89,16.67 3.88,-25.26 3.89,47.68 3.88,-61.62 3.89,6.7 3.88,-37.8 3.88,0 3.89,0 3.88,0 3.89,0 3.88,0 3.88,0 3.89,40.94 3.88,51.31 3.89,-55.19 3.88,-6.44 3.88,-17.27 3.89,43.52 3.88,3.95 3.89,-50.24 3.88,0 3.75,258.04"
           style="fill:none;stroke:#f8766d;stroke-width:1.05999994;stroke-linecap:butt;stroke-linejoin:round;stroke-miterlimit:1;stroke-dasharray:none;stroke-opacity:1"
           id="path4430"
           inkscape:connector-curvature="0" /><path
           d="m 415.73,360 3.73,-228.67 3.88,-4.34 3.89,-12.32 3.88,50.26 3.88,95.89 3.89,-154.83 3.88,-10.82 3.89,0 3.88,-21.72"
           style="fill:none;stroke:#f8766d;stroke-width:1.05999994;stroke-linecap:butt;stroke-linejoin:round;stroke-miterlimit:1;stroke-dasharray:none;stroke-opacity:1"
           id="path4432"
           inkscape:connector-curvature="0" /><path
           d="m 66.01,255.36 3.88,-5.69 3.89,-19.97 3.88,0 3.88,0 3.89,8.12 3.88,-29.67 3.89,-9.1 3.88,0 3.89,0.44 3.88,0 3.88,0 3.89,0 3.88,0 3.89,-18.13 3.88,0 3.88,-0.43 3.89,0 3.88,6.33 3.89,0 3.88,16.75 3.88,0.09 3.89,-40.43 3.88,0 3.89,0 3.88,0 3.88,0 3.89,-0.39 3.88,0.64 3.89,0 3.88,5.8 3.88,-20.25 3.89,0 3.88,0 3.89,0 3.88,0 3.88,-19.53 3.89,0 3.88,0 3.89,0 3.88,0 3.89,0 3.88,0 3.88,0 3.89,0 3.88,0 3.89,0 3.88,-7.39 3.88,20.75 3.89,-34.72 3.88,-0.45 3.89,10.79 3.88,-8.09 3.88,0 3.89,0 3.88,-2.48 3.89,0 3.88,-0.25 3.88,6.22 3.89,-7.27 3.88,0 3.89,0 3.88,0 3.88,-1.1 3.89,0 3.88,0 3.89,0 3.88,1.28 3.88,3.75 3.89,-11.59 3.88,0 3.89,0 3.88,-2.42 3.89,21.94 3.88,-5.25 3.88,-1.3 3.89,6.6 3.88,0 3.89,23.27 3.88,-14.51 3.88,-51.82 3.89,0 3.88,0 3.89,0 3.88,0 3.88,0 3.89,0 3.88,0 3.89,0 3.88,0 3.88,0 3.89,-0.89 3.88,0 3.89,0 3.88,0 3.88,0 3.89,0 3.88,0 3.89,0 3.88,-1.56"
           style="fill:none;stroke:#00bfc4;stroke-width:1.05999994;stroke-linecap:butt;stroke-linejoin:round;stroke-miterlimit:1;stroke-dasharray:none;stroke-opacity:1"
           id="path4434"
           inkscape:connector-curvature="0" /></g></g><g
       id="g4436" /><g
       id="g4438" /><g
       id="g4440"><text
         transform="matrix(1,0,0,-1,28.58,121.46)"
         style="font-variant:normal;font-weight:normal;font-size:10px;font-family:Helvetica;-inkscape-font-specification:Helvetica;writing-mode:lr-tb;fill:#7f7f7f;fill-opacity:1;fill-rule:nonzero;stroke:none"
         id="text4442"><tspan
           x="0 5.5599999"
           y="0"
           sodipodi:role="line"
           id="tspan4444">10</tspan></text>
<text
         transform="matrix(1,0,0,-1,23.02,342.01)"
         style="font-variant:normal;font-weight:normal;font-size:10px;font-family:Helvetica;-inkscape-font-specification:Helvetica;writing-mode:lr-tb;fill:#7f7f7f;fill-opacity:1;fill-rule:nonzero;stroke:none"
         id="text4446"><tspan
           x="0 5.5599999 11.12"
           y="0"
           sodipodi:role="line"
           id="tspan4448">100</tspan></text>
</g><g
       id="g4450" /><g
       id="g4452"><path
         d="m 42.53,125.05 4.25,0"
         style="fill:none;stroke:#7f7f7f;stroke-width:1.05999994;stroke-linecap:butt;stroke-linejoin:round;stroke-miterlimit:10;stroke-dasharray:none;stroke-opacity:1"
         id="path4454"
         inkscape:connector-curvature="0" /><path
         d="m 42.53,345.6 4.25,0"
         style="fill:none;stroke:#7f7f7f;stroke-width:1.05999994;stroke-linecap:butt;stroke-linejoin:round;stroke-miterlimit:10;stroke-dasharray:none;stroke-opacity:1"
         id="path4456"
         inkscape:connector-curvature="0" /></g><g
       id="g4458" /><g
       id="g4460" /><g
       id="g4462" /><g
       id="g4464" /><g
       id="g4466" /><g
       id="g4468"><path
         d="m 62.12,33.03 0,4.25"
         style="fill:none;stroke:#7f7f7f;stroke-width:1.05999994;stroke-linecap:butt;stroke-linejoin:round;stroke-miterlimit:10;stroke-dasharray:none;stroke-opacity:1"
         id="path4470"
         inkscape:connector-curvature="0" /><path
         d="m 159.23,33.03 0,4.25"
         style="fill:none;stroke:#7f7f7f;stroke-width:1.05999994;stroke-linecap:butt;stroke-linejoin:round;stroke-miterlimit:10;stroke-dasharray:none;stroke-opacity:1"
         id="path4472"
         inkscape:connector-curvature="0" /><path
         d="m 256.33,33.03 0,4.25"
         style="fill:none;stroke:#7f7f7f;stroke-width:1.05999994;stroke-linecap:butt;stroke-linejoin:round;stroke-miterlimit:10;stroke-dasharray:none;stroke-opacity:1"
         id="path4474"
         inkscape:connector-curvature="0" /><path
         d="m 353.43,33.03 0,4.25"
         style="fill:none;stroke:#7f7f7f;stroke-width:1.05999994;stroke-linecap:butt;stroke-linejoin:round;stroke-miterlimit:10;stroke-dasharray:none;stroke-opacity:1"
         id="path4476"
         inkscape:connector-curvature="0" /><path
         d="m 450.53,33.03 0,4.25"
         style="fill:none;stroke:#7f7f7f;stroke-width:1.05999994;stroke-linecap:butt;stroke-linejoin:round;stroke-miterlimit:10;stroke-dasharray:none;stroke-opacity:1"
         id="path4478"
         inkscape:connector-curvature="0" /></g><g
       id="g4480" /><g
       id="g4482"><text
         transform="matrix(1,0,0,-1,59.34,23.02)"
         style="font-variant:normal;font-weight:normal;font-size:10px;font-family:Helvetica;-inkscape-font-specification:Helvetica;writing-mode:lr-tb;fill:#7f7f7f;fill-opacity:1;fill-rule:nonzero;stroke:none"
         id="text4484"><tspan
           x="0"
           y="0"
           id="tspan4486">0</tspan></text>
<text
         transform="matrix(1,0,0,-1,153.67,23.02)"
         style="font-variant:normal;font-weight:normal;font-size:10px;font-family:Helvetica;-inkscape-font-specification:Helvetica;writing-mode:lr-tb;fill:#7f7f7f;fill-opacity:1;fill-rule:nonzero;stroke:none"
         id="text4488"><tspan
           x="0 5.5599999"
           y="0"
           sodipodi:role="line"
           id="tspan4490">25</tspan></text>
<text
         transform="matrix(1,0,0,-1,250.77,23.02)"
         style="font-variant:normal;font-weight:normal;font-size:10px;font-family:Helvetica;-inkscape-font-specification:Helvetica;writing-mode:lr-tb;fill:#7f7f7f;fill-opacity:1;fill-rule:nonzero;stroke:none"
         id="text4492"><tspan
           x="0 5.5599999"
           y="0"
           sodipodi:role="line"
           id="tspan4494">50</tspan></text>
<text
         transform="matrix(1,0,0,-1,347.87,23.02)"
         style="font-variant:normal;font-weight:normal;font-size:10px;font-family:Helvetica;-inkscape-font-specification:Helvetica;writing-mode:lr-tb;fill:#7f7f7f;fill-opacity:1;fill-rule:nonzero;stroke:none"
         id="text4496"><tspan
           x="0 5.5599999"
           y="0"
           sodipodi:role="line"
           id="tspan4498">75</tspan></text>
<text
         transform="matrix(1,0,0,-1,442.19,23.02)"
         style="font-variant:normal;font-weight:normal;font-size:10px;font-family:Helvetica;-inkscape-font-specification:Helvetica;writing-mode:lr-tb;fill:#7f7f7f;fill-opacity:1;fill-rule:nonzero;stroke:none"
         id="text4500"><tspan
           x="0 5.5599999 11.12"
           y="0"
           sodipodi:role="line"
           id="tspan4502">100</tspan></text>
</g><g
       id="g4504" /><g
       id="g4506" /><g
       id="g4508" /><g
       id="g4510" /><g
       id="g4512"><text
         transform="matrix(1,0,0,-1,228.65,10.8)"
         style="font-variant:normal;font-weight:normal;font-size:12px;font-family:Helvetica;-inkscape-font-specification:Helvetica;writing-mode:lr-tb;fill:#000000;fill-opacity:1;fill-rule:nonzero;stroke:none"
         id="text4514"><tspan
           x="0 9.3360004 16.007999 22.68 29.351999 33.228001 39.900002 43.236 45.900002 52.571999"
           y="0"
           sodipodi:role="line"
           id="tspan4516">Generation</tspan></text>
</g><g
       id="g4518" /><g
       id="g4520"><text
         transform="matrix(0,1,1,0,19.42,172.1)"
         style="font-variant:normal;font-weight:normal;font-size:12px;font-family:Helvetica;-inkscape-font-specification:Helvetica;writing-mode:lr-tb;fill:#000000;fill-opacity:1;fill-rule:nonzero;stroke:none"
         id="text4522"><tspan
           x="0 7.3319998 9.9960003 13.332 20.004 26.676001 32.675999"
           y="0"
           sodipodi:role="line"
           id="tspan4524">Fitness</tspan></text>
</g><g
       id="g4526" /><g
       id="g4528" /><g
       id="g4530" /><g
       id="g4532" /><g
       id="g4534" /><g
       id="g4536"><path
         d="m 479.79,157.83 71.77,0 0,67.22 -71.77,0 0,-67.22 z"
         style="fill:#ffffff;fill-opacity:1;fill-rule:nonzero;stroke:none"
         id="path4538"
         inkscape:connector-curvature="0" /></g><g
       id="g4540" /><g
       id="g4542"><text
         transform="matrix(1,0,0,-1,484.04,213.77)"
         style="font-variant:normal;font-weight:bold;font-size:10px;font-family:Helvetica;-inkscape-font-specification:Helvetica-Bold;writing-mode:lr-tb;fill:#000000;fill-opacity:1;fill-rule:nonzero;stroke:none"
         id="text4544"><tspan
           x="0 6.3699999 11.93 15.82 21.379999 27.49 30.82 36.380001 39.709999 45.27 51.380001"
           y="0"
           sodipodi:role="line"
           id="tspan4546">Parent_type</tspan></text>
</g><g
       id="g4548" /><g
       id="g4550"><path
         d="m 484.04,185.13 23.04,0 0,23.04 -23.04,0 0,-23.04 z"
         style="fill:#f2f2f2;fill-opacity:1;fill-rule:nonzero;stroke:#ffffff;stroke-width:1.05999994;stroke-linecap:round;stroke-linejoin:round;stroke-miterlimit:10;stroke-dasharray:none;stroke-opacity:1"
         id="path4552"
         inkscape:connector-curvature="0" /></g><g
       id="g4554" /><g
       id="g4556"><path
         d="m 486.35,196.65 18.43,0"
         style="fill:none;stroke:#f8766d;stroke-width:1.05999994;stroke-linecap:butt;stroke-linejoin:round;stroke-miterlimit:10;stroke-dasharray:none;stroke-opacity:1"
         id="path4558"
         inkscape:connector-curvature="0" /></g><g
       id="g4560" /><g
       id="g4562"><path
         d="m 484.04,162.09 23.04,0 0,23.04 -23.04,0 0,-23.04 z"
         style="fill:#f2f2f2;fill-opacity:1;fill-rule:nonzero;stroke:#ffffff;stroke-width:1.05999994;stroke-linecap:round;stroke-linejoin:round;stroke-miterlimit:10;stroke-dasharray:none;stroke-opacity:1"
         id="path4564"
         inkscape:connector-curvature="0" /></g><g
       id="g4566" /><g
       id="g4568"><path
         d="m 486.35,173.61 18.43,0"
         style="fill:none;stroke:#00bfc4;stroke-width:1.05999994;stroke-linecap:butt;stroke-linejoin:round;stroke-miterlimit:10;stroke-dasharray:none;stroke-opacity:1"
         id="path4570"
         inkscape:connector-curvature="0" /></g><g
       id="g4572" /><g
       id="g4574"><text
         transform="matrix(1,0,0,-1,509.96,193.06)"
         style="font-variant:normal;font-weight:normal;font-size:10px;font-family:Helvetica;-inkscape-font-specification:Helvetica;writing-mode:lr-tb;fill:#000000;fill-opacity:1;fill-rule:nonzero;stroke:none"
         id="text4576"><tspan
           x="0 7.2199998 12.78 18.34 24.18 27.51 33.07 38.630001"
           y="0"
           sodipodi:role="line"
           id="tspan4578">Non−root</tspan></text>
</g><g
       id="g4580" /><g
       id="g4582"><text
         transform="matrix(1,0,0,-1,509.96,170.02)"
         style="font-variant:normal;font-weight:normal;font-size:10px;font-family:Helvetica;-inkscape-font-specification:Helvetica;writing-mode:lr-tb;fill:#000000;fill-opacity:1;fill-rule:nonzero;stroke:none"
         id="text4584"><tspan
           x="0 7.2199998 12.78 18.34"
           y="0"
           sodipodi:role="line"
           id="tspan4586">Root</tspan></text>
</g><g
       id="g4588" /><g
       id="g4590" /><g
       id="g4592" /><g
       id="g4594" /><g
       id="g4596" /><g
       id="g4598" /><g
       id="g4600" /><g
       id="g4602" /><g
       id="g4604" /><g
       id="g4606" /><g
       id="g4608" /><g
       id="g4610" /></g></svg>