<?xml version="1.0" encoding="UTF-8" standalone="no"?>
<!-- Created with Inkscape (http://www.inkscape.org/) -->

<svg
   xmlns:dc="http://purl.org/dc/elements/1.1/"
   xmlns:cc="http://creativecommons.org/ns#"
   xmlns:rdf="http://www.w3.org/1999/02/22-rdf-syntax-ns#"
   xmlns:svg="http://www.w3.org/2000/svg"
   xmlns="http://www.w3.org/2000/svg"
   xmlns:sodipodi="http://sodipodi.sourceforge.net/DTD/sodipodi-0.dtd"
   xmlns:inkscape="http://www.inkscape.org/namespaces/inkscape"
   id="svg2"
   version="1.1"
   inkscape:version="0.91 r13725"
   xml:space="preserve"
   width="620"
   height="383.75"
   viewBox="0 0 620 383.75"
   sodipodi:docname="Sine_fitness_vs_gen_facets.svg"><metadata
     id="metadata8"><rdf:RDF><cc:Work
         rdf:about=""><dc:format>image/svg+xml</dc:format><dc:type
           rdf:resource="http://purl.org/dc/dcmitype/StillImage" /><dc:title></dc:title></cc:Work></rdf:RDF></metadata><defs
     id="defs6"><clipPath
       clipPathUnits="userSpaceOnUse"
       id="clipPath20"><path
         d="m 0,0 496.5,0 0,307.5 L 0,307.5 0,0 Z"
         id="path22"
         inkscape:connector-curvature="0" /></clipPath><clipPath
       clipPathUnits="userSpaceOnUse"
       id="clipPath32"><path
         d="m 40.78,259.38 182.27,0 0,16.47 -182.27,0 0,-16.47 z"
         id="path34"
         inkscape:connector-curvature="0" /></clipPath><clipPath
       clipPathUnits="userSpaceOnUse"
       id="clipPath48"><path
         d="m 226.65,259.38 182.27,0 0,16.47 -182.27,0 0,-16.47 z"
         id="path50"
         inkscape:connector-curvature="0" /></clipPath><clipPath
       clipPathUnits="userSpaceOnUse"
       id="clipPath64"><path
         d="m 40.78,36.97 182.27,0 0,222.4 -182.27,0 0,-222.4 z"
         id="path66"
         inkscape:connector-curvature="0" /></clipPath><clipPath
       clipPathUnits="userSpaceOnUse"
       id="clipPath124"><path
         d="m 226.65,36.97 182.27,0 0,222.4 -182.27,0 0,-222.4 z"
         id="path126"
         inkscape:connector-curvature="0" /></clipPath></defs><sodipodi:namedview
     pagecolor="#ffffff"
     bordercolor="#666666"
     borderopacity="1"
     objecttolerance="10"
     gridtolerance="10"
     guidetolerance="10"
     inkscape:pageopacity="0"
     inkscape:pageshadow="2"
     inkscape:window-width="640"
     inkscape:window-height="480"
     id="namedview4"
     showgrid="false"
     inkscape:zoom="0.60967742"
     inkscape:cx="310"
     inkscape:cy="191.875"
     inkscape:window-x="0"
     inkscape:window-y="0"
     inkscape:window-maximized="0"
     inkscape:current-layer="g10" /><g
     id="g10"
     inkscape:groupmode="layer"
     inkscape:label="Sine_fitness_vs_gen_facets"
     transform="matrix(1.25,0,0,-1.25,0,383.75)"><g
       id="g12" /><g
       id="g14" /><g
       id="g16"><g
         id="g18"
         clip-path="url(#clipPath20)"><path
           d="m 0,0 496.5,0 0,307.5 L 0,307.5 0,0 Z"
           style="fill:#ffffff;fill-opacity:1;fill-rule:nonzero;stroke:#ffffff;stroke-width:1.05999994;stroke-linecap:round;stroke-linejoin:round;stroke-miterlimit:10;stroke-dasharray:none;stroke-opacity:1"
           id="path24"
           inkscape:connector-curvature="0" /></g></g><g
       id="g26" /><g
       id="g28"><g
         id="g30"
         clip-path="url(#clipPath32)"><path
           d="m 40.78,259.38 182.27,0 0,16.47 -182.27,0 0,-16.47 z"
           style="fill:#cccccc;fill-opacity:1;fill-rule:nonzero;stroke:none"
           id="path36"
           inkscape:connector-curvature="0" /><text
           transform="matrix(1,0,0,-1,100.93,264.02)"
           style="font-variant:normal;font-weight:normal;font-size:10px;font-family:Helvetica;-inkscape-font-specification:Helvetica;writing-mode:lr-tb;fill:#000000;fill-opacity:1;fill-rule:nonzero;stroke:none"
           id="text38"><tspan
             x="0 6.6700001 8.8900003 14.45 19.450001 25.290001 30.85 33.630001 36.110001 41.669998 46.669998 49.450001 51.669998 56.419998"
             y="0"
             sodipodi:role="line"
             id="tspan40">Bias−effective</tspan></text>
</g></g><g
       id="g42" /><g
       id="g44"><g
         id="g46"
         clip-path="url(#clipPath48)"><path
           d="m 226.65,259.38 182.27,0 0,16.47 -182.27,0 0,-16.47 z"
           style="fill:#cccccc;fill-opacity:1;fill-rule:nonzero;stroke:none"
           id="path52"
           inkscape:connector-curvature="0" /><text
           transform="matrix(1,0,0,-1,275.26,264.02)"
           style="font-variant:normal;font-weight:normal;font-size:10px;font-family:Helvetica;-inkscape-font-specification:Helvetica;writing-mode:lr-tb;fill:#000000;fill-opacity:1;fill-rule:nonzero;stroke:none"
           id="text54"><tspan
             x="0 7.2199998 12.78 18.34 24.18 29.74 31.959999 37.52 42.52 48.360001 53.919998 56.700001 59.18 64.739998 69.739998 72.519997 74.739998 79.489998"
             y="0"
             sodipodi:role="line"
             id="tspan56">Non−bias−effective</tspan></text>
</g></g><g
       id="g58" /><g
       id="g60"><g
         id="g62"
         clip-path="url(#clipPath64)"><path
           d="m 40.78,36.97 182.27,0 0,222.4 -182.27,0 0,-222.4 z"
           style="fill:#e5e5e5;fill-opacity:1;fill-rule:nonzero;stroke:none"
           id="path68"
           inkscape:connector-curvature="0" /><path
           d="m 40.78,73.1 182.27,0"
           style="fill:none;stroke:#f2f2f2;stroke-width:0.52999997;stroke-linecap:butt;stroke-linejoin:round;stroke-miterlimit:10;stroke-dasharray:none;stroke-opacity:1"
           id="path70"
           inkscape:connector-curvature="0" /><path
           d="m 40.78,149.79 182.27,0"
           style="fill:none;stroke:#f2f2f2;stroke-width:0.52999997;stroke-linecap:butt;stroke-linejoin:round;stroke-miterlimit:10;stroke-dasharray:none;stroke-opacity:1"
           id="path72"
           inkscape:connector-curvature="0" /><path
           d="m 40.78,226.48 182.27,0"
           style="fill:none;stroke:#f2f2f2;stroke-width:0.52999997;stroke-linecap:butt;stroke-linejoin:round;stroke-miterlimit:10;stroke-dasharray:none;stroke-opacity:1"
           id="path74"
           inkscape:connector-curvature="0" /><path
           d="m 69.78,36.97 0,222.41"
           style="fill:none;stroke:#f2f2f2;stroke-width:0.52999997;stroke-linecap:butt;stroke-linejoin:round;stroke-miterlimit:10;stroke-dasharray:none;stroke-opacity:1"
           id="path76"
           inkscape:connector-curvature="0" /><path
           d="m 111.2,36.97 0,222.41"
           style="fill:none;stroke:#f2f2f2;stroke-width:0.52999997;stroke-linecap:butt;stroke-linejoin:round;stroke-miterlimit:10;stroke-dasharray:none;stroke-opacity:1"
           id="path78"
           inkscape:connector-curvature="0" /><path
           d="m 152.63,36.97 0,222.41"
           style="fill:none;stroke:#f2f2f2;stroke-width:0.52999997;stroke-linecap:butt;stroke-linejoin:round;stroke-miterlimit:10;stroke-dasharray:none;stroke-opacity:1"
           id="path80"
           inkscape:connector-curvature="0" /><path
           d="m 194.05,36.97 0,222.41"
           style="fill:none;stroke:#f2f2f2;stroke-width:0.52999997;stroke-linecap:butt;stroke-linejoin:round;stroke-miterlimit:10;stroke-dasharray:none;stroke-opacity:1"
           id="path82"
           inkscape:connector-curvature="0" /><path
           d="m 40.78,111.44 182.27,0"
           style="fill:none;stroke:#ffffff;stroke-width:1.05999994;stroke-linecap:butt;stroke-linejoin:round;stroke-miterlimit:10;stroke-dasharray:none;stroke-opacity:1"
           id="path84"
           inkscape:connector-curvature="0" /><path
           d="m 40.78,188.13 182.27,0"
           style="fill:none;stroke:#ffffff;stroke-width:1.05999994;stroke-linecap:butt;stroke-linejoin:round;stroke-miterlimit:10;stroke-dasharray:none;stroke-opacity:1"
           id="path86"
           inkscape:connector-curvature="0" /><path
           d="m 49.07,36.97 0,222.41"
           style="fill:none;stroke:#ffffff;stroke-width:1.05999994;stroke-linecap:butt;stroke-linejoin:round;stroke-miterlimit:10;stroke-dasharray:none;stroke-opacity:1"
           id="path88"
           inkscape:connector-curvature="0" /><path
           d="m 90.49,36.97 0,222.41"
           style="fill:none;stroke:#ffffff;stroke-width:1.05999994;stroke-linecap:butt;stroke-linejoin:round;stroke-miterlimit:10;stroke-dasharray:none;stroke-opacity:1"
           id="path90"
           inkscape:connector-curvature="0" /><path
           d="m 131.92,36.97 0,222.41"
           style="fill:none;stroke:#ffffff;stroke-width:1.05999994;stroke-linecap:butt;stroke-linejoin:round;stroke-miterlimit:10;stroke-dasharray:none;stroke-opacity:1"
           id="path92"
           inkscape:connector-curvature="0" /><path
           d="m 173.34,36.97 0,222.41"
           style="fill:none;stroke:#ffffff;stroke-width:1.05999994;stroke-linecap:butt;stroke-linejoin:round;stroke-miterlimit:10;stroke-dasharray:none;stroke-opacity:1"
           id="path94"
           inkscape:connector-curvature="0" /><path
           d="m 214.77,36.97 0,222.41"
           style="fill:none;stroke:#ffffff;stroke-width:1.05999994;stroke-linecap:butt;stroke-linejoin:round;stroke-miterlimit:10;stroke-dasharray:none;stroke-opacity:1"
           id="path96"
           inkscape:connector-curvature="0" /><path
           d="m 49.07,218.76 2.09,0.14 2.1,0.16 2.1,0.16 2.1,0.17 2.09,0.13 2.1,0.05 2.1,-0.12 2.1,-0.36 2.09,-0.64 2.1,-0.97 2.1,-1.25 2.1,-1.49 2.09,-1.69 2.1,-1.88 2.1,-2.04 2.1,-2.21 2.09,-2.41 2.1,-2.59 2.1,-2.78 2.1,-2.9 2.09,-2.98 2.1,-3.02 2.1,-3.02 2.1,-3.01 2.09,-3 2.1,-2.99 2.1,-2.99 2.1,-2.95 2.09,-2.9 2.1,-2.82 2.1,-2.72 2.1,-2.59 2.09,-2.5 2.1,-2.42 2.1,-2.36 2.09,-2.32 2.1,-2.28 2.1,-2.21 2.1,-2.12 2.09,-2.04 2.1,-1.95 2.1,-1.89 2.1,-1.86 2.09,-1.88 2.1,-1.9 2.1,-1.91 2.1,-1.9 2.09,-1.84 2.1,-1.79 2.1,-1.73 2.1,-1.7 2.09,-1.68 2.1,-1.69 2.1,-1.71 2.1,-1.69 2.09,-1.66 2.1,-1.6 2.1,-1.53 2.1,-1.45 2.09,-1.41 2.1,-1.39 2.1,-1.39 2.1,-1.38 2.09,-1.36 2.1,-1.31 2.1,-1.24 2.1,-1.16 2.09,-1.11 2.1,-1.07 2.1,-1.06 2.1,-1.08 2.09,-1.09 2.1,-1.09 2.1,-1.03 2.1,-0.96 2.09,-0.84 2.1,-0.73 2.1,-0.66 2.1,-0.6 0,-4.53 -2.1,1.32 -2.1,1.28 -2.1,1.21 -2.09,1.13 -2.1,1.03 -2.1,0.99 -2.1,0.97 -2.09,1.01 -2.1,1.07 -2.1,1.13 -2.1,1.19 -2.09,1.22 -2.1,1.22 -2.1,1.21 -2.1,1.22 -2.09,1.25 -2.1,1.3 -2.1,1.39 -2.1,1.46 -2.09,1.52 -2.1,1.56 -2.1,1.55 -2.1,1.56 -2.09,1.56 -2.1,1.58 -2.1,1.64 -2.1,1.7 -2.09,1.77 -2.1,1.81 -2.1,1.82 -2.1,1.81 -2.09,1.79 -2.1,1.78 -2.1,1.8 -2.1,1.85 -2.09,1.91 -2.1,1.97 -2.1,2 -2.1,2.03 -2.09,2.03 -2.1,2.05 -2.1,2.1 -2.1,2.17 -2.09,2.29 -2.1,2.42 -2.1,2.52 -2.09,2.61 -2.1,2.66 -2.1,2.69 -2.1,2.73 -2.09,2.79 -2.1,2.87 -2.1,2.96 -2.1,3.06 -2.09,3.12 -2.1,3.11 -2.1,3.06 -2.1,2.99 -2.09,2.89 -2.1,2.79 -2.1,2.69 -2.1,2.6 -2.09,2.49 -2.1,2.32 -2.1,2.13 -2.1,1.9 -2.09,1.64 -2.1,1.38 -2.1,1.13 -2.1,0.89 -2.09,0.66 -2.1,0.44 -2.1,0.23 -2.1,0.01 -2.09,-0.22 -2.1,-0.45 -2.1,-0.64 -2.1,-0.78 -2.09,-0.86 0,4.53 z"
           style="fill:#999999;fill-opacity:0.4;fill-rule:nonzero;stroke:none"
           id="path98"
           inkscape:connector-curvature="0" /><path
           d="m 49.07,216.5 2.09,0.49 2.1,0.47 2.1,0.41 2.1,0.3 2.09,0.18 2.1,0.02 2.1,-0.17 2.1,-0.4 2.09,-0.65 2.1,-0.93 2.1,-1.19 2.1,-1.44 2.09,-1.67 2.1,-1.88 2.1,-2.09 2.1,-2.27 2.09,-2.44 2.1,-2.6 2.1,-2.74 2.1,-2.84 2.09,-2.94 2.1,-3 2.1,-3.04 2.1,-3.06 2.09,-3.06 2.1,-3.03 2.1,-2.97 2.1,-2.91 2.09,-2.84 2.1,-2.78 2.1,-2.7 2.1,-2.63 2.09,-2.56 2.1,-2.47 2.1,-2.39 2.09,-2.3 2.1,-2.22 2.1,-2.16 2.1,-2.09 2.09,-2.03 2.1,-1.99 2.1,-1.94 2.1,-1.92 2.09,-1.89 2.1,-1.88 2.1,-1.86 2.1,-1.84 2.09,-1.81 2.1,-1.8 2.1,-1.78 2.1,-1.75 2.09,-1.72 2.1,-1.7 2.1,-1.67 2.1,-1.64 2.09,-1.61 2.1,-1.58 2.1,-1.54 2.1,-1.51 2.09,-1.46 2.1,-1.43 2.1,-1.38 2.1,-1.34 2.09,-1.31 2.1,-1.26 2.1,-1.23 2.1,-1.19 2.09,-1.16 2.1,-1.13 2.1,-1.1 2.1,-1.08 2.09,-1.05 2.1,-1.03 2.1,-1 2.1,-1 2.09,-0.98 2.1,-0.97 2.1,-0.97 2.1,-0.97"
           style="fill:none;stroke:#f8766d;stroke-width:1.05999994;stroke-linecap:butt;stroke-linejoin:round;stroke-miterlimit:1;stroke-dasharray:none;stroke-opacity:1"
           id="path100"
           inkscape:connector-curvature="0" /><path
           d="m 49.07,219.63 2.09,-0.83 2.1,-0.83 2.1,-0.86 2.1,-0.93 2.09,-1.04 2.1,-1.26 2.1,-1.57 2.1,-1.99 2.09,-2.48 2.1,-3 2.1,-3.41 2.1,-3.72 2.09,-3.92 2.1,-4.02 2.1,-4.06 2.1,-4.04 2.09,-3.98 2.1,-3.86 2.1,-3.72 2.1,-3.57 2.09,-3.43 2.1,-3.26 2.1,-3.14 2.1,-3.04 2.09,-3.01 2.1,-3.04 2.1,-3.11 2.1,-3.19 2.09,-3.2 2.1,-3.15 2.1,-3.07 2.1,-2.94 2.09,-2.81 2.1,-2.7 2.1,-2.58 2.09,-2.48 2.1,-2.36 2.1,-2.23 2.1,-2.1 2.09,-1.95 2.1,-1.82 2.1,-1.74 2.1,-1.71 2.09,-1.72 2.1,-1.77 2.1,-1.79 2.1,-1.77 2.09,-1.69 2.1,-1.61 2.1,-1.5 2.1,-1.42 2.09,-1.36 2.1,-1.32 2.1,-1.29 2.1,-1.23 2.09,-1.16 2.1,-1.07 2.1,-0.96 2.1,-0.88 2.09,-0.84 2.1,-0.84 2.1,-0.88 2.1,-0.92 2.09,-0.92 2.1,-0.89 2.1,-0.84 2.1,-0.76 2.09,-0.7 2.1,-0.65 2.1,-0.65 2.1,-0.66 2.09,-0.67 2.1,-0.66 2.1,-0.61 2.1,-0.53 2.09,-0.4 2.1,-0.29 2.1,-0.19 2.1,-0.14 0,-4.2 -2.1,0.86 -2.1,0.82 -2.1,0.74 -2.09,0.64 -2.1,0.56 -2.1,0.52 -2.1,0.52 -2.09,0.57 -2.1,0.66 -2.1,0.75 -2.1,0.8 -2.09,0.83 -2.1,0.81 -2.1,0.79 -2.1,0.77 -2.09,0.78 -2.1,0.82 -2.1,0.87 -2.1,0.94 -2.09,0.98 -2.1,1.01 -2.1,1 -2.1,1.01 -2.09,1.03 -2.1,1.09 -2.1,1.21 -2.1,1.34 -2.09,1.47 -2.1,1.56 -2.1,1.62 -2.1,1.62 -2.09,1.62 -2.1,1.63 -2.1,1.65 -2.1,1.71 -2.09,1.76 -2.1,1.84 -2.1,1.88 -2.1,1.92 -2.09,1.95 -2.1,2 -2.1,2.09 -2.1,2.24 -2.09,2.43 -2.1,2.65 -2.1,2.83 -2.09,2.95 -2.1,3.02 -2.1,3.04 -2.1,3.04 -2.09,3.06 -2.1,3.07 -2.1,3.1 -2.1,3.12 -2.09,3.15 -2.1,3.17 -2.1,3.2 -2.1,3.22 -2.09,3.3 -2.1,3.43 -2.1,3.62 -2.1,3.87 -2.09,4.08 -2.1,4.18 -2.1,4.18 -2.1,4.07 -2.09,3.86 -2.1,3.59 -2.1,3.27 -2.1,2.9 -2.09,2.48 -2.1,2.08 -2.1,1.72 -2.1,1.36 -2.09,1.01 -2.1,0.68 -2.1,0.4 -2.1,0.22 -2.09,0.1 0,4.2 z"
           style="fill:#999999;fill-opacity:0.4;fill-rule:nonzero;stroke:none"
           id="path102"
           inkscape:connector-curvature="0" /><path
           d="m 49.07,217.53 2.09,-0.47 2.1,-0.52 2.1,-0.63 2.1,-0.81 2.09,-1.02 2.1,-1.31 2.1,-1.64 2.1,-2.04 2.09,-2.48 2.1,-2.95 2.1,-3.34 2.1,-3.66 2.09,-3.89 2.1,-4.04 2.1,-4.12 2.1,-4.11 2.09,-4.03 2.1,-3.87 2.1,-3.67 2.1,-3.5 2.09,-3.36 2.1,-3.24 2.1,-3.17 2.1,-3.11 2.09,-3.08 2.1,-3.08 2.1,-3.1 2.1,-3.13 2.09,-3.13 2.1,-3.1 2.1,-3.05 2.1,-2.98 2.09,-2.88 2.1,-2.76 2.1,-2.62 2.09,-2.46 2.1,-2.29 2.1,-2.17 2.1,-2.05 2.09,-1.95 2.1,-1.87 2.1,-1.81 2.1,-1.77 2.09,-1.74 2.1,-1.74 2.1,-1.72 2.1,-1.7 2.09,-1.66 2.1,-1.61 2.1,-1.56 2.1,-1.49 2.09,-1.42 2.1,-1.33 2.1,-1.24 2.1,-1.17 2.09,-1.09 2.1,-1.04 2.1,-0.98 2.1,-0.94 2.09,-0.92 2.1,-0.88 2.1,-0.88 2.1,-0.87 2.09,-0.85 2.1,-0.83 2.1,-0.81 2.1,-0.79 2.09,-0.76 2.1,-0.73 2.1,-0.7 2.1,-0.66 2.09,-0.62 2.1,-0.59 2.1,-0.57 2.1,-0.54 2.09,-0.52 2.1,-0.52 2.1,-0.5 2.1,-0.5"
           style="fill:none;stroke:#a3a500;stroke-width:1.05999994;stroke-linecap:butt;stroke-linejoin:round;stroke-miterlimit:1;stroke-dasharray:none;stroke-opacity:1"
           id="path104"
           inkscape:connector-curvature="0" /><path
           d="m 49.07,220.55 2.09,-2.22 2.1,-2.21 2.1,-2.23 2.1,-2.27 2.09,-2.35 2.1,-2.53 2.1,-2.78 2.1,-3.12 2.09,-3.53 2.1,-3.95 2.1,-4.28 2.1,-4.53 2.09,-4.67 2.1,-4.72 2.1,-4.72 2.1,-4.66 2.09,-4.58 2.1,-4.45 2.1,-4.27 2.1,-4.1 2.09,-3.91 2.1,-3.7 2.1,-3.51 2.1,-3.34 2.09,-3.21 2.1,-3.13 2.1,-3.09 2.1,-3.04 2.09,-2.96 2.1,-2.86 2.1,-2.73 2.1,-2.57 2.09,-2.45 2.1,-2.35 2.1,-2.27 2.09,-2.21 2.1,-2.14 2.1,-2.05 2.1,-1.94 2.09,-1.82 2.1,-1.7 2.1,-1.62 2.1,-1.57 2.09,-1.56 2.1,-1.57 2.1,-1.55 2.1,-1.5 2.09,-1.43 2.1,-1.33 2.1,-1.23 2.1,-1.16 2.09,-1.1 2.1,-1.08 2.1,-1.06 2.1,-1.03 2.09,-0.96 2.1,-0.87 2.1,-0.78 2.1,-0.7 2.09,-0.65 2.1,-0.63 2.1,-0.65 2.1,-0.66 2.09,-0.66 2.1,-0.62 2.1,-0.57 2.1,-0.49 2.09,-0.44 2.1,-0.42 2.1,-0.42 2.1,-0.45 2.09,-0.48 2.1,-0.49 2.1,-0.46 2.1,-0.38 2.09,-0.29 2.1,-0.18 2.1,-0.11 2.1,-0.06 0,-3.88 -2.1,0.72 -2.1,0.68 -2.1,0.6 -2.09,0.51 -2.1,0.43 -2.1,0.36 -2.1,0.37 -2.09,0.39 -2.1,0.45 -2.1,0.51 -2.1,0.55 -2.09,0.56 -2.1,0.54 -2.1,0.53 -2.1,0.51 -2.09,0.53 -2.1,0.57 -2.1,0.64 -2.1,0.73 -2.09,0.77 -2.1,0.81 -2.1,0.82 -2.1,0.82 -2.09,0.84 -2.1,0.9 -2.1,0.98 -2.1,1.1 -2.09,1.21 -2.1,1.29 -2.1,1.33 -2.1,1.34 -2.09,1.36 -2.1,1.38 -2.1,1.43 -2.1,1.51 -2.09,1.6 -2.1,1.68 -2.1,1.75 -2.1,1.79 -2.09,1.82 -2.1,1.85 -2.1,1.93 -2.1,2.02 -2.09,2.17 -2.1,2.33 -2.1,2.47 -2.09,2.57 -2.1,2.65 -2.1,2.7 -2.1,2.76 -2.09,2.84 -2.1,2.94 -2.1,3.07 -2.1,3.21 -2.09,3.33 -2.1,3.46 -2.1,3.56 -2.1,3.66 -2.09,3.8 -2.1,3.97 -2.1,4.19 -2.1,4.45 -2.09,4.67 -2.1,4.79 -2.1,4.83 -2.1,4.76 -2.09,4.62 -2.1,4.4 -2.1,4.16 -2.1,3.86 -2.09,3.53 -2.1,3.21 -2.1,2.9 -2.1,2.62 -2.09,2.32 -2.1,2.04 -2.1,1.81 -2.1,1.64 -2.09,1.56 0,3.88 z"
           style="fill:#999999;fill-opacity:0.4;fill-rule:nonzero;stroke:none"
           id="path106"
           inkscape:connector-curvature="0" /><path
           d="m 49.07,218.61 2.09,-1.89 2.1,-1.92 2.1,-2.02 2.1,-2.16 2.09,-2.34 2.1,-2.57 2.1,-2.84 2.1,-3.16 2.09,-3.53 2.1,-3.91 2.1,-4.22 2.1,-4.47 2.09,-4.64 2.1,-4.74 2.1,-4.77 2.1,-4.73 2.09,-4.63 2.1,-4.44 2.1,-4.24 2.1,-4.03 2.09,-3.85 2.1,-3.69 2.1,-3.53 2.1,-3.4 2.09,-3.27 2.1,-3.17 2.1,-3.08 2.1,-2.99 2.09,-2.9 2.1,-2.81 2.1,-2.71 2.1,-2.62 2.09,-2.51 2.1,-2.4 2.1,-2.3 2.09,-2.19 2.1,-2.08 2.1,-1.99 2.1,-1.9 2.09,-1.82 2.1,-1.75 2.1,-1.68 2.1,-1.63 2.09,-1.58 2.1,-1.53 2.1,-1.49 2.1,-1.45 2.09,-1.39 2.1,-1.34 2.1,-1.28 2.1,-1.22 2.09,-1.15 2.1,-1.09 2.1,-1.03 2.1,-0.96 2.09,-0.9 2.1,-0.85 2.1,-0.8 2.1,-0.75 2.09,-0.71 2.1,-0.68 2.1,-0.65 2.1,-0.61 2.09,-0.6 2.1,-0.56 2.1,-0.55 2.1,-0.52 2.09,-0.5 2.1,-0.48 2.1,-0.47 2.1,-0.45 2.09,-0.43 2.1,-0.43 2.1,-0.41 2.1,-0.41 2.09,-0.39 2.1,-0.4 2.1,-0.39 2.1,-0.39"
           style="fill:none;stroke:#00bf7d;stroke-width:1.05999994;stroke-linecap:butt;stroke-linejoin:round;stroke-miterlimit:1;stroke-dasharray:none;stroke-opacity:1"
           id="path108"
           inkscape:connector-curvature="0" /><path
           d="m 49.07,223.63 2.09,-4.37 2.1,-4.34 2.1,-4.34 2.1,-4.32 2.09,-4.33 2.1,-4.4 2.1,-4.54 2.1,-4.73 2.09,-4.96 2.1,-5.19 2.1,-5.37 2.1,-5.44 2.09,-5.43 2.1,-5.37 2.1,-5.24 2.1,-5.08 2.09,-4.89 2.1,-4.66 2.1,-4.41 2.1,-4.16 2.09,-3.91 2.1,-3.67 2.1,-3.43 2.1,-3.25 2.09,-3.1 2.1,-3.01 2.1,-2.96 2.1,-2.91 2.09,-2.82 2.1,-2.71 2.1,-2.55 2.1,-2.4 2.09,-2.23 2.1,-2.09 2.1,-1.96 2.09,-1.85 2.1,-1.72 2.1,-1.6 2.1,-1.47 2.09,-1.33 2.1,-1.21 2.1,-1.13 2.1,-1.09 2.09,-1.09 2.1,-1.12 2.1,-1.13 2.1,-1.1 2.09,-1.05 2.1,-0.97 2.1,-0.91 2.1,-0.84 2.09,-0.81 2.1,-0.79 2.1,-0.78 2.1,-0.75 2.09,-0.7 2.1,-0.63 2.1,-0.56 2.1,-0.5 2.09,-0.47 2.1,-0.47 2.1,-0.5 2.1,-0.52 2.09,-0.53 2.1,-0.51 2.1,-0.46 2.1,-0.4 2.09,-0.36 2.1,-0.33 2.1,-0.32 2.1,-0.34 2.09,-0.35 2.1,-0.35 2.1,-0.31 2.1,-0.25 2.09,-0.15 2.1,-0.05 2.1,0.02 2.1,0.06 0,-3.44 -2.1,0.52 -2.1,0.49 -2.1,0.43 -2.09,0.35 -2.1,0.27 -2.1,0.24 -2.1,0.24 -2.09,0.28 -2.1,0.33 -2.1,0.4 -2.1,0.44 -2.09,0.46 -2.1,0.45 -2.1,0.43 -2.1,0.41 -2.09,0.42 -2.1,0.44 -2.1,0.5 -2.1,0.54 -2.09,0.59 -2.1,0.59 -2.1,0.6 -2.1,0.58 -2.09,0.6 -2.1,0.64 -2.1,0.71 -2.1,0.81 -2.09,0.89 -2.1,0.96 -2.1,0.99 -2.1,0.99 -2.09,0.99 -2.1,0.99 -2.1,1.02 -2.1,1.07 -2.09,1.13 -2.1,1.19 -2.1,1.24 -2.1,1.28 -2.09,1.33 -2.1,1.4 -2.1,1.48 -2.1,1.63 -2.09,1.81 -2.1,2.02 -2.1,2.19 -2.09,2.34 -2.1,2.46 -2.1,2.53 -2.1,2.62 -2.09,2.72 -2.1,2.82 -2.1,2.94 -2.1,3.08 -2.09,3.21 -2.1,3.35 -2.1,3.48 -2.1,3.63 -2.09,3.82 -2.1,4.04 -2.1,4.34 -2.1,4.66 -2.09,4.97 -2.1,5.19 -2.1,5.34 -2.1,5.4 -2.09,5.39 -2.1,5.34 -2.1,5.24 -2.1,5.12 -2.09,4.97 -2.1,4.8 -2.1,4.64 -2.1,4.48 -2.09,4.31 -2.1,4.12 -2.1,3.96 -2.1,3.84 -2.09,3.78 0,3.44 z"
           style="fill:#999999;fill-opacity:0.4;fill-rule:nonzero;stroke:none"
           id="path110"
           inkscape:connector-curvature="0" /><path
           d="m 49.07,221.91 2.09,-4.07 2.1,-4.1 2.1,-4.15 2.1,-4.22 2.09,-4.31 2.1,-4.45 2.1,-4.59 2.1,-4.76 2.09,-4.96 2.1,-5.16 2.1,-5.3 2.1,-5.39 2.09,-5.42 2.1,-5.38 2.1,-5.29 2.1,-5.14 2.09,-4.93 2.1,-4.66 2.1,-4.37 2.1,-4.1 2.09,-3.87 2.1,-3.65 2.1,-3.45 2.1,-3.3 2.09,-3.15 2.1,-3.05 2.1,-2.95 2.1,-2.86 2.09,-2.77 2.1,-2.67 2.1,-2.54 2.1,-2.43 2.09,-2.28 2.1,-2.15 2.1,-1.99 2.09,-1.82 2.1,-1.68 2.1,-1.54 2.1,-1.43 2.09,-1.33 2.1,-1.25 2.1,-1.19 2.1,-1.14 2.09,-1.11 2.1,-1.09 2.1,-1.07 2.1,-1.05 2.09,-1.02 2.1,-0.98 2.1,-0.95 2.1,-0.9 2.09,-0.85 2.1,-0.8 2.1,-0.74 2.1,-0.7 2.09,-0.65 2.1,-0.61 2.1,-0.57 2.1,-0.55 2.09,-0.53 2.1,-0.51 2.1,-0.49 2.1,-0.49 2.09,-0.47 2.1,-0.46 2.1,-0.44 2.1,-0.43 2.09,-0.41 2.1,-0.38 2.1,-0.36 2.1,-0.34 2.09,-0.31 2.1,-0.3 2.1,-0.27 2.1,-0.26 2.09,-0.25 2.1,-0.25 2.1,-0.23 2.1,-0.23"
           style="fill:none;stroke:#00b0f6;stroke-width:1.05999994;stroke-linecap:butt;stroke-linejoin:round;stroke-miterlimit:1;stroke-dasharray:none;stroke-opacity:1"
           id="path112"
           inkscape:connector-curvature="0" /><path
           d="m 49.07,221.03 2.09,-5.36 2.1,-5.34 2.1,-5.31 2.1,-5.26 2.09,-5.25 2.1,-5.26 2.1,-5.33 2.1,-5.44 2.09,-5.59 2.1,-5.73 2.1,-5.8 2.1,-5.8 2.09,-5.71 2.1,-5.56 2.1,-5.36 2.1,-5.12 2.09,-4.86 2.1,-4.57 2.1,-4.24 2.1,-3.94 2.09,-3.65 2.1,-3.36 2.1,-3.1 2.1,-2.89 2.09,-2.73 2.1,-2.63 2.1,-2.57 2.1,-2.52 2.09,-2.45 2.1,-2.33 2.1,-2.21 2.1,-2.07 2.09,-1.93 2.1,-1.81 2.1,-1.72 2.09,-1.62 2.1,-1.54 2.1,-1.44 2.1,-1.32 2.09,-1.21 2.1,-1.1 2.1,-1.02 2.1,-0.98 2.09,-0.97 2.1,-0.99 2.1,-0.98 2.1,-0.96 2.09,-0.9 2.1,-0.83 2.1,-0.77 2.1,-0.72 2.09,-0.7 2.1,-0.68 2.1,-0.69 2.1,-0.67 2.09,-0.63 2.1,-0.57 2.1,-0.51 2.1,-0.44 2.09,-0.42 2.1,-0.4 2.1,-0.43 2.1,-0.43 2.09,-0.44 2.1,-0.41 2.1,-0.37 2.1,-0.31 2.09,-0.27 2.1,-0.26 2.1,-0.26 2.1,-0.29 2.09,-0.31 2.1,-0.32 2.1,-0.3 2.1,-0.24 2.09,-0.16 2.1,-0.07 2.1,-0.01 2.1,0.03 0,-3.24 -2.1,0.52 -2.1,0.49 -2.1,0.42 -2.09,0.35 -2.1,0.27 -2.1,0.23 -2.1,0.21 -2.09,0.25 -2.1,0.28 -2.1,0.33 -2.1,0.37 -2.09,0.37 -2.1,0.35 -2.1,0.34 -2.1,0.32 -2.09,0.33 -2.1,0.36 -2.1,0.42 -2.1,0.48 -2.09,0.52 -2.1,0.54 -2.1,0.53 -2.1,0.53 -2.09,0.54 -2.1,0.56 -2.1,0.63 -2.1,0.7 -2.09,0.77 -2.1,0.83 -2.1,0.85 -2.1,0.85 -2.09,0.84 -2.1,0.86 -2.1,0.89 -2.1,0.93 -2.09,1.01 -2.1,1.07 -2.1,1.13 -2.1,1.16 -2.09,1.21 -2.1,1.25 -2.1,1.34 -2.1,1.44 -2.09,1.6 -2.1,1.76 -2.1,1.92 -2.09,2.03 -2.1,2.12 -2.1,2.19 -2.1,2.26 -2.09,2.34 -2.1,2.44 -2.1,2.56 -2.1,2.68 -2.09,2.83 -2.1,2.99 -2.1,3.14 -2.1,3.33 -2.09,3.56 -2.1,3.84 -2.1,4.17 -2.1,4.57 -2.09,4.93 -2.1,5.23 -2.1,5.45 -2.1,5.59 -2.09,5.67 -2.1,5.7 -2.1,5.69 -2.1,5.66 -2.09,5.59 -2.1,5.51 -2.1,5.44 -2.1,5.33 -2.09,5.21 -2.1,5.08 -2.1,4.95 -2.1,4.87 -2.09,4.81 0,3.24 z"
           style="fill:#999999;fill-opacity:0.4;fill-rule:nonzero;stroke:none"
           id="path114"
           inkscape:connector-curvature="0" /><path
           d="m 49.07,219.41 2.09,-5.09 2.1,-5.1 2.1,-5.13 2.1,-5.17 2.09,-5.23 2.1,-5.3 2.1,-5.38 2.1,-5.48 2.09,-5.59 2.1,-5.69 2.1,-5.75 2.1,-5.74 2.09,-5.69 2.1,-5.58 2.1,-5.4 2.1,-5.18 2.09,-4.9 2.1,-4.56 2.1,-4.21 2.1,-3.89 2.09,-3.6 2.1,-3.35 2.1,-3.12 2.1,-2.94 2.09,-2.78 2.1,-2.65 2.1,-2.57 2.1,-2.48 2.09,-2.39 2.1,-2.3 2.1,-2.2 2.1,-2.09 2.09,-1.99 2.1,-1.86 2.1,-1.74 2.09,-1.61 2.1,-1.49 2.1,-1.39 2.1,-1.29 2.09,-1.2 2.1,-1.14 2.1,-1.07 2.1,-1.02 2.09,-0.99 2.1,-0.97 2.1,-0.93 2.1,-0.91 2.09,-0.87 2.1,-0.84 2.1,-0.81 2.1,-0.77 2.09,-0.74 2.1,-0.69 2.1,-0.66 2.1,-0.62 2.09,-0.58 2.1,-0.55 2.1,-0.52 2.1,-0.49 2.09,-0.47 2.1,-0.44 2.1,-0.42 2.1,-0.4 2.09,-0.39 2.1,-0.36 2.1,-0.35 2.1,-0.34 2.09,-0.32 2.1,-0.31 2.1,-0.29 2.1,-0.29 2.09,-0.28 2.1,-0.27 2.1,-0.26 2.1,-0.26 2.09,-0.25 2.1,-0.25 2.1,-0.24 2.1,-0.25"
           style="fill:none;stroke:#e76bf3;stroke-width:1.05999994;stroke-linecap:butt;stroke-linejoin:round;stroke-miterlimit:1;stroke-dasharray:none;stroke-opacity:1"
           id="path116"
           inkscape:connector-curvature="0" /></g></g><g
       id="g118" /><g
       id="g120"><g
         id="g122"
         clip-path="url(#clipPath124)"><path
           d="m 226.65,36.97 182.27,0 0,222.4 -182.27,0 0,-222.4 z"
           style="fill:#e5e5e5;fill-opacity:1;fill-rule:nonzero;stroke:none"
           id="path128"
           inkscape:connector-curvature="0" /><path
           d="m 226.65,73.1 182.27,0"
           style="fill:none;stroke:#f2f2f2;stroke-width:0.52999997;stroke-linecap:butt;stroke-linejoin:round;stroke-miterlimit:10;stroke-dasharray:none;stroke-opacity:1"
           id="path130"
           inkscape:connector-curvature="0" /><path
           d="m 226.65,149.79 182.27,0"
           style="fill:none;stroke:#f2f2f2;stroke-width:0.52999997;stroke-linecap:butt;stroke-linejoin:round;stroke-miterlimit:10;stroke-dasharray:none;stroke-opacity:1"
           id="path132"
           inkscape:connector-curvature="0" /><path
           d="m 226.65,226.48 182.27,0"
           style="fill:none;stroke:#f2f2f2;stroke-width:0.52999997;stroke-linecap:butt;stroke-linejoin:round;stroke-miterlimit:10;stroke-dasharray:none;stroke-opacity:1"
           id="path134"
           inkscape:connector-curvature="0" /><path
           d="m 255.65,36.97 0,222.41"
           style="fill:none;stroke:#f2f2f2;stroke-width:0.52999997;stroke-linecap:butt;stroke-linejoin:round;stroke-miterlimit:10;stroke-dasharray:none;stroke-opacity:1"
           id="path136"
           inkscape:connector-curvature="0" /><path
           d="m 297.07,36.97 0,222.41"
           style="fill:none;stroke:#f2f2f2;stroke-width:0.52999997;stroke-linecap:butt;stroke-linejoin:round;stroke-miterlimit:10;stroke-dasharray:none;stroke-opacity:1"
           id="path138"
           inkscape:connector-curvature="0" /><path
           d="m 338.5,36.97 0,222.41"
           style="fill:none;stroke:#f2f2f2;stroke-width:0.52999997;stroke-linecap:butt;stroke-linejoin:round;stroke-miterlimit:10;stroke-dasharray:none;stroke-opacity:1"
           id="path140"
           inkscape:connector-curvature="0" /><path
           d="m 379.92,36.97 0,222.41"
           style="fill:none;stroke:#f2f2f2;stroke-width:0.52999997;stroke-linecap:butt;stroke-linejoin:round;stroke-miterlimit:10;stroke-dasharray:none;stroke-opacity:1"
           id="path142"
           inkscape:connector-curvature="0" /><path
           d="m 226.65,111.44 182.27,0"
           style="fill:none;stroke:#ffffff;stroke-width:1.05999994;stroke-linecap:butt;stroke-linejoin:round;stroke-miterlimit:10;stroke-dasharray:none;stroke-opacity:1"
           id="path144"
           inkscape:connector-curvature="0" /><path
           d="m 226.65,188.13 182.27,0"
           style="fill:none;stroke:#ffffff;stroke-width:1.05999994;stroke-linecap:butt;stroke-linejoin:round;stroke-miterlimit:10;stroke-dasharray:none;stroke-opacity:1"
           id="path146"
           inkscape:connector-curvature="0" /><path
           d="m 234.94,36.97 0,222.41"
           style="fill:none;stroke:#ffffff;stroke-width:1.05999994;stroke-linecap:butt;stroke-linejoin:round;stroke-miterlimit:10;stroke-dasharray:none;stroke-opacity:1"
           id="path148"
           inkscape:connector-curvature="0" /><path
           d="m 276.36,36.97 0,222.41"
           style="fill:none;stroke:#ffffff;stroke-width:1.05999994;stroke-linecap:butt;stroke-linejoin:round;stroke-miterlimit:10;stroke-dasharray:none;stroke-opacity:1"
           id="path150"
           inkscape:connector-curvature="0" /><path
           d="m 317.79,36.97 0,222.41"
           style="fill:none;stroke:#ffffff;stroke-width:1.05999994;stroke-linecap:butt;stroke-linejoin:round;stroke-miterlimit:10;stroke-dasharray:none;stroke-opacity:1"
           id="path152"
           inkscape:connector-curvature="0" /><path
           d="m 359.21,36.97 0,222.41"
           style="fill:none;stroke:#ffffff;stroke-width:1.05999994;stroke-linecap:butt;stroke-linejoin:round;stroke-miterlimit:10;stroke-dasharray:none;stroke-opacity:1"
           id="path154"
           inkscape:connector-curvature="0" /><path
           d="m 400.64,36.97 0,222.41"
           style="fill:none;stroke:#ffffff;stroke-width:1.05999994;stroke-linecap:butt;stroke-linejoin:round;stroke-miterlimit:10;stroke-dasharray:none;stroke-opacity:1"
           id="path156"
           inkscape:connector-curvature="0" /><path
           d="m 234.94,249.27 2.09,-8.63 2.1,-8.55 2.1,-8.4 2.1,-8.21 2.09,-7.99 2.1,-7.76 2.1,-7.56 2.1,-7.36 2.09,-7.18 2.1,-6.98 2.1,-6.74 2.1,-6.45 2.09,-6.13 2.1,-5.79 2.1,-5.42 2.1,-5.07 2.09,-4.72 2.1,-4.4 2.1,-4.07 2.1,-3.74 2.09,-3.43 2.1,-3.1 2.1,-2.8 2.1,-2.53 2.09,-2.33 2.1,-2.16 2.1,-2.06 2.1,-1.95 2.09,-1.84 2.1,-1.7 2.1,-1.55 2.1,-1.4 2.09,-1.28 2.1,-1.19 2.1,-1.14 2.1,-1.11 2.09,-1.08 2.1,-1.03 2.1,-0.94 2.1,-0.86 2.09,-0.78 2.1,-0.71 2.1,-0.69 2.1,-0.68 2.09,-0.71 2.1,-0.72 2.1,-0.69 2.1,-0.64 2.09,-0.58 2.1,-0.52 2.1,-0.48 2.1,-0.48 2.09,-0.5 2.1,-0.52 2.1,-0.53 2.1,-0.5 2.09,-0.45 2.1,-0.4 2.1,-0.34 2.1,-0.32 2.09,-0.32 2.1,-0.34 2.1,-0.37 2.09,-0.37 2.1,-0.34 2.1,-0.3 2.1,-0.24 2.09,-0.21 2.1,-0.19 2.1,-0.21 2.1,-0.25 2.09,-0.28 2.1,-0.28 2.1,-0.23 2.1,-0.15 2.09,-0.04 2.1,0.08 2.1,0.17 2.1,0.22 0,-5.72 -2.1,0.65 -2.1,0.59 -2.1,0.5 -2.09,0.41 -2.1,0.29 -2.1,0.21 -2.1,0.17 -2.09,0.19 -2.1,0.23 -2.1,0.28 -2.1,0.32 -2.09,0.32 -2.1,0.31 -2.1,0.27 -2.1,0.26 -2.09,0.25 -2.1,0.29 -2.1,0.34 -2.09,0.4 -2.1,0.44 -2.1,0.44 -2.1,0.43 -2.09,0.41 -2.1,0.4 -2.1,0.4 -2.1,0.45 -2.09,0.52 -2.1,0.57 -2.1,0.6 -2.1,0.62 -2.09,0.59 -2.1,0.58 -2.1,0.58 -2.1,0.6 -2.09,0.65 -2.1,0.73 -2.1,0.79 -2.1,0.83 -2.09,0.85 -2.1,0.86 -2.1,0.87 -2.1,0.91 -2.09,0.97 -2.1,1.08 -2.1,1.19 -2.1,1.31 -2.09,1.39 -2.1,1.46 -2.1,1.54 -2.1,1.6 -2.09,1.72 -2.1,1.86 -2.1,2.04 -2.1,2.24 -2.09,2.44 -2.1,2.64 -2.1,2.85 -2.1,3.06 -2.09,3.33 -2.1,3.62 -2.1,3.99 -2.1,4.4 -2.09,4.81 -2.1,5.18 -2.1,5.51 -2.1,5.8 -2.09,6.07 -2.1,6.34 -2.1,6.61 -2.1,6.91 -2.09,7.2 -2.1,7.45 -2.1,7.66 -2.1,7.79 -2.09,7.85 -2.1,7.84 -2.1,7.82 -2.1,7.79 -2.09,7.76 0,5.72 z"
           style="fill:#999999;fill-opacity:0.4;fill-rule:nonzero;stroke:none"
           id="path158"
           inkscape:connector-curvature="0" /><path
           d="m 234.94,246.41 2.09,-8.2 2.1,-8.16 2.1,-8.12 2.1,-8.02 2.09,-7.92 2.1,-7.77 2.1,-7.61 2.1,-7.41 2.09,-7.19 2.1,-6.94 2.1,-6.68 2.1,-6.4 2.09,-6.1 2.1,-5.79 2.1,-5.46 2.1,-5.13 2.09,-4.77 2.1,-4.39 2.1,-4.03 2.1,-3.69 2.09,-3.37 2.1,-3.09 2.1,-2.82 2.1,-2.59 2.09,-2.38 2.1,-2.2 2.1,-2.05 2.1,-1.9 2.09,-1.78 2.1,-1.66 2.1,-1.54 2.1,-1.43 2.09,-1.34 2.1,-1.25 2.1,-1.16 2.1,-1.1 2.09,-1.02 2.1,-0.97 2.1,-0.91 2.1,-0.86 2.09,-0.81 2.1,-0.77 2.1,-0.74 2.1,-0.71 2.09,-0.68 2.1,-0.65 2.1,-0.64 2.1,-0.61 2.09,-0.59 2.1,-0.56 2.1,-0.55 2.1,-0.52 2.09,-0.51 2.1,-0.48 2.1,-0.47 2.1,-0.45 2.09,-0.43 2.1,-0.41 2.1,-0.4 2.1,-0.38 2.09,-0.36 2.1,-0.34 2.1,-0.33 2.09,-0.31 2.1,-0.3 2.1,-0.28 2.1,-0.27 2.09,-0.27 2.1,-0.25 2.1,-0.25 2.1,-0.24 2.09,-0.23 2.1,-0.23 2.1,-0.22 2.1,-0.22 2.09,-0.22 2.1,-0.22 2.1,-0.21 2.1,-0.21"
           style="fill:none;stroke:#f8766d;stroke-width:1.05999994;stroke-linecap:butt;stroke-linejoin:round;stroke-miterlimit:1;stroke-dasharray:none;stroke-opacity:1"
           id="path160"
           inkscape:connector-curvature="0" /><path
           d="m 234.94,244.32 2.09,-8.27 2.1,-8.19 2.1,-8.03 2.1,-7.81 2.09,-7.56 2.1,-7.31 2.1,-7.07 2.1,-6.85 2.09,-6.62 2.1,-6.38 2.1,-6.11 2.1,-5.83 2.09,-5.51 2.1,-5.19 2.1,-4.87 2.1,-4.59 2.09,-4.33 2.1,-4.1 2.1,-3.89 2.1,-3.67 2.09,-3.44 2.1,-3.2 2.1,-2.98 2.1,-2.79 2.09,-2.63 2.1,-2.54 2.1,-2.49 2.1,-2.43 2.09,-2.34 2.1,-2.21 2.1,-2.07 2.1,-1.92 2.09,-1.76 2.1,-1.65 2.1,-1.56 2.1,-1.47 2.09,-1.39 2.1,-1.29 2.1,-1.16 2.1,-1.02 2.09,-0.9 2.1,-0.8 2.1,-0.74 2.1,-0.71 2.09,-0.71 2.1,-0.7 2.1,-0.65 2.1,-0.59 2.09,-0.51 2.1,-0.44 2.1,-0.39 2.1,-0.39 2.09,-0.42 2.1,-0.44 2.1,-0.46 2.1,-0.44 2.09,-0.39 2.1,-0.34 2.1,-0.29 2.1,-0.27 2.09,-0.28 2.1,-0.31 2.1,-0.35 2.09,-0.36 2.1,-0.33 2.1,-0.29 2.1,-0.23 2.09,-0.2 2.1,-0.18 2.1,-0.2 2.1,-0.24 2.09,-0.27 2.1,-0.27 2.1,-0.23 2.1,-0.13 2.09,-0.02 2.1,0.1 2.1,0.2 2.1,0.25 0,-5.78 -2.1,0.64 -2.1,0.58 -2.1,0.49 -2.09,0.39 -2.1,0.27 -2.1,0.18 -2.1,0.16 -2.09,0.17 -2.1,0.22 -2.1,0.28 -2.1,0.32 -2.09,0.32 -2.1,0.3 -2.1,0.26 -2.1,0.24 -2.09,0.23 -2.1,0.26 -2.1,0.31 -2.09,0.37 -2.1,0.39 -2.1,0.4 -2.1,0.38 -2.09,0.34 -2.1,0.32 -2.1,0.33 -2.1,0.37 -2.09,0.44 -2.1,0.49 -2.1,0.52 -2.1,0.54 -2.09,0.53 -2.1,0.52 -2.1,0.53 -2.1,0.57 -2.09,0.65 -2.1,0.76 -2.1,0.85 -2.1,0.92 -2.09,0.98 -2.1,1.03 -2.1,1.07 -2.1,1.16 -2.09,1.28 -2.1,1.44 -2.1,1.61 -2.1,1.77 -2.09,1.89 -2.1,1.98 -2.1,2.05 -2.1,2.12 -2.09,2.21 -2.1,2.33 -2.1,2.47 -2.1,2.61 -2.09,2.77 -2.1,2.9 -2.1,3.03 -2.1,3.16 -2.09,3.34 -2.1,3.54 -2.1,3.8 -2.1,4.1 -2.09,4.42 -2.1,4.71 -2.1,4.97 -2.1,5.21 -2.09,5.45 -2.1,5.7 -2.1,5.98 -2.1,6.3 -2.09,6.64 -2.1,6.94 -2.1,7.19 -2.1,7.35 -2.09,7.43 -2.1,7.45 -2.1,7.43 -2.1,7.4 -2.09,7.39 0,5.78 z"
           style="fill:#999999;fill-opacity:0.4;fill-rule:nonzero;stroke:none"
           id="path162"
           inkscape:connector-curvature="0" /><path
           d="m 234.94,241.43 2.09,-7.83 2.1,-7.8 2.1,-7.73 2.1,-7.62 2.09,-7.5 2.1,-7.33 2.1,-7.13 2.1,-6.89 2.09,-6.63 2.1,-6.34 2.1,-6.05 2.1,-5.77 2.09,-5.48 2.1,-5.2 2.1,-4.92 2.1,-4.64 2.09,-4.38 2.1,-4.1 2.1,-3.85 2.1,-3.6 2.09,-3.39 2.1,-3.18 2.1,-3.01 2.1,-2.84 2.09,-2.7 2.1,-2.58 2.1,-2.47 2.1,-2.38 2.09,-2.28 2.1,-2.17 2.1,-2.06 2.1,-1.94 2.09,-1.83 2.1,-1.71 2.1,-1.58 2.1,-1.46 2.09,-1.33 2.1,-1.23 2.1,-1.12 2.1,-1.02 2.09,-0.94 2.1,-0.86 2.1,-0.8 2.1,-0.73 2.09,-0.68 2.1,-0.64 2.1,-0.59 2.1,-0.55 2.09,-0.52 2.1,-0.49 2.1,-0.46 2.1,-0.44 2.09,-0.42 2.1,-0.41 2.1,-0.39 2.1,-0.38 2.09,-0.37 2.1,-0.36 2.1,-0.34 2.1,-0.34 2.09,-0.32 2.1,-0.31 2.1,-0.31 2.09,-0.29 2.1,-0.29 2.1,-0.27 2.1,-0.27 2.09,-0.25 2.1,-0.25 2.1,-0.24 2.1,-0.23 2.09,-0.22 2.1,-0.22 2.1,-0.21 2.1,-0.2 2.09,-0.2 2.1,-0.19 2.1,-0.2 2.1,-0.19"
           style="fill:none;stroke:#a3a500;stroke-width:1.05999994;stroke-linecap:butt;stroke-linejoin:round;stroke-miterlimit:1;stroke-dasharray:none;stroke-opacity:1"
           id="path164"
           inkscape:connector-curvature="0" /><path
           d="m 234.94,243.42 2.09,-8.8 2.1,-8.7 2.1,-8.55 2.1,-8.33 2.09,-8.08 2.1,-7.82 2.1,-7.58 2.1,-7.35 2.09,-7.11 2.1,-6.85 2.1,-6.56 2.1,-6.24 2.09,-5.88 2.1,-5.5 2.1,-5.12 2.1,-4.75 2.09,-4.41 2.1,-4.09 2.1,-3.77 2.1,-3.46 2.09,-3.14 2.1,-2.83 2.1,-2.54 2.1,-2.28 2.09,-2.07 2.1,-1.93 2.1,-1.83 2.1,-1.75 2.09,-1.63 2.1,-1.52 2.1,-1.38 2.1,-1.25 2.09,-1.14 2.1,-1.08 2.1,-1.05 2.1,-1.06 2.09,-1.04 2.1,-1.01 2.1,-0.94 2.1,-0.87 2.09,-0.79 2.1,-0.74 2.1,-0.71 2.1,-0.72 2.09,-0.74 2.1,-0.74 2.1,-0.71 2.1,-0.65 2.09,-0.58 2.1,-0.5 2.1,-0.46 2.1,-0.44 2.09,-0.44 2.1,-0.44 2.1,-0.45 2.1,-0.4 2.09,-0.35 2.1,-0.29 2.1,-0.23 2.1,-0.21 2.09,-0.22 2.1,-0.25 2.1,-0.29 2.09,-0.31 2.1,-0.28 2.1,-0.25 2.1,-0.2 2.09,-0.16 2.1,-0.16 2.1,-0.18 2.1,-0.23 2.09,-0.26 2.1,-0.27 2.1,-0.23 2.1,-0.15 2.09,-0.03 2.1,0.07 2.1,0.17 2.1,0.22 0,-5.48 -2.1,0.63 -2.1,0.58 -2.1,0.49 -2.09,0.38 -2.1,0.27 -2.1,0.19 -2.1,0.15 -2.09,0.17 -2.1,0.21 -2.1,0.26 -2.1,0.28 -2.09,0.29 -2.1,0.26 -2.1,0.23 -2.1,0.19 -2.09,0.18 -2.1,0.2 -2.1,0.26 -2.09,0.3 -2.1,0.33 -2.1,0.34 -2.1,0.32 -2.09,0.3 -2.1,0.3 -2.1,0.32 -2.1,0.37 -2.09,0.46 -2.1,0.53 -2.1,0.58 -2.1,0.6 -2.09,0.6 -2.1,0.59 -2.1,0.59 -2.1,0.62 -2.09,0.68 -2.1,0.75 -2.1,0.83 -2.1,0.86 -2.09,0.87 -2.1,0.87 -2.1,0.86 -2.1,0.89 -2.09,0.93 -2.1,1.02 -2.1,1.1 -2.1,1.2 -2.09,1.27 -2.1,1.31 -2.1,1.36 -2.1,1.42 -2.09,1.51 -2.1,1.65 -2.1,1.81 -2.1,2.01 -2.09,2.2 -2.1,2.39 -2.1,2.58 -2.1,2.8 -2.09,3.03 -2.1,3.34 -2.1,3.68 -2.1,4.09 -2.09,4.5 -2.1,4.88 -2.1,5.21 -2.1,5.52 -2.09,5.82 -2.1,6.11 -2.1,6.44 -2.1,6.77 -2.09,7.13 -2.1,7.44 -2.1,7.69 -2.1,7.87 -2.09,7.96 -2.1,7.99 -2.1,7.98 -2.1,7.96 -2.09,7.94 0,5.48 z"
           style="fill:#999999;fill-opacity:0.4;fill-rule:nonzero;stroke:none"
           id="path166"
           inkscape:connector-curvature="0" /><path
           d="m 234.94,240.68 2.09,-8.37 2.1,-8.33 2.1,-8.26 2.1,-8.16 2.09,-8.02 2.1,-7.85 2.1,-7.64 2.1,-7.39 2.09,-7.12 2.1,-6.81 2.1,-6.5 2.1,-6.18 2.09,-5.85 2.1,-5.51 2.1,-5.16 2.1,-4.82 2.09,-4.45 2.1,-4.09 2.1,-3.73 2.1,-3.39 2.09,-3.09 2.1,-2.82 2.1,-2.56 2.1,-2.33 2.09,-2.14 2.1,-1.97 2.1,-1.82 2.1,-1.69 2.09,-1.58 2.1,-1.46 2.1,-1.37 2.1,-1.29 2.09,-1.2 2.1,-1.14 2.1,-1.08 2.1,-1.03 2.09,-0.99 2.1,-0.95 2.1,-0.9 2.1,-0.87 2.09,-0.83 2.1,-0.8 2.1,-0.77 2.1,-0.74 2.09,-0.71 2.1,-0.68 2.1,-0.65 2.1,-0.62 2.09,-0.58 2.1,-0.56 2.1,-0.52 2.1,-0.48 2.09,-0.45 2.1,-0.41 2.1,-0.38 2.1,-0.35 2.09,-0.32 2.1,-0.31 2.1,-0.28 2.1,-0.27 2.09,-0.27 2.1,-0.25 2.1,-0.25 2.09,-0.24 2.1,-0.24 2.1,-0.23 2.1,-0.23 2.09,-0.23 2.1,-0.22 2.1,-0.22 2.1,-0.22 2.09,-0.21 2.1,-0.21 2.1,-0.22 2.1,-0.2 2.09,-0.21 2.1,-0.21 2.1,-0.2 2.1,-0.21"
           style="fill:none;stroke:#00bf7d;stroke-width:1.05999994;stroke-linecap:butt;stroke-linejoin:round;stroke-miterlimit:1;stroke-dasharray:none;stroke-opacity:1"
           id="path168"
           inkscape:connector-curvature="0" /><path
           d="m 234.94,245.41 2.09,-10.25 2.1,-10.13 2.1,-9.89 2.1,-9.55 2.09,-9.16 2.1,-8.75 2.1,-8.33 2.1,-7.9 2.09,-7.46 2.1,-6.96 2.1,-6.48 2.1,-5.98 2.09,-5.48 2.1,-5 2.1,-4.55 2.1,-4.17 2.09,-3.87 2.1,-3.64 2.1,-3.42 2.1,-3.2 2.09,-2.93 2.1,-2.66 2.1,-2.38 2.1,-2.13 2.09,-1.93 2.1,-1.79 2.1,-1.69 2.1,-1.6 2.09,-1.49 2.1,-1.35 2.1,-1.19 2.1,-1.05 2.09,-0.94 2.1,-0.89 2.1,-0.89 2.1,-0.94 2.09,-0.96 2.1,-0.95 2.1,-0.89 2.1,-0.8 2.09,-0.71 2.1,-0.65 2.1,-0.62 2.1,-0.62 2.09,-0.65 2.1,-0.66 2.1,-0.62 2.1,-0.56 2.09,-0.47 2.1,-0.41 2.1,-0.36 2.1,-0.38 2.09,-0.44 2.1,-0.49 2.1,-0.53 2.1,-0.52 2.09,-0.46 2.1,-0.39 2.1,-0.34 2.1,-0.31 2.09,-0.32 2.1,-0.37 2.1,-0.41 2.09,-0.42 2.1,-0.38 2.1,-0.33 2.1,-0.24 2.09,-0.19 2.1,-0.17 2.1,-0.19 2.1,-0.24 2.09,-0.29 2.1,-0.31 2.1,-0.27 2.1,-0.16 2.09,-0.02 2.1,0.13 2.1,0.23 2.1,0.3 0,-6.02 -2.1,0.69 -2.1,0.62 -2.1,0.52 -2.09,0.39 -2.1,0.24 -2.1,0.16 -2.1,0.14 -2.09,0.16 -2.1,0.23 -2.1,0.31 -2.1,0.35 -2.09,0.36 -2.1,0.32 -2.1,0.28 -2.1,0.24 -2.09,0.25 -2.1,0.28 -2.1,0.36 -2.09,0.44 -2.1,0.49 -2.1,0.48 -2.1,0.45 -2.09,0.39 -2.1,0.36 -2.1,0.36 -2.1,0.39 -2.09,0.45 -2.1,0.52 -2.1,0.54 -2.1,0.54 -2.09,0.5 -2.1,0.47 -2.1,0.45 -2.1,0.49 -2.09,0.57 -2.1,0.68 -2.1,0.77 -2.1,0.82 -2.09,0.83 -2.1,0.8 -2.1,0.78 -2.1,0.77 -2.09,0.81 -2.1,0.89 -2.1,0.97 -2.1,1.05 -2.09,1.11 -2.1,1.14 -2.1,1.17 -2.1,1.21 -2.09,1.31 -2.1,1.46 -2.1,1.67 -2.1,1.89 -2.09,2.11 -2.1,2.29 -2.1,2.45 -2.1,2.6 -2.09,2.79 -2.1,3.02 -2.1,3.31 -2.1,3.64 -2.09,3.99 -2.1,4.35 -2.1,4.7 -2.1,5.04 -2.09,5.4 -2.1,5.81 -2.1,6.3 -2.1,6.85 -2.09,7.46 -2.1,8.03 -2.1,8.5 -2.1,8.86 -2.09,9.07 -2.1,9.2 -2.1,9.24 -2.1,9.27 -2.09,9.26 0,6.02 z"
           style="fill:#999999;fill-opacity:0.4;fill-rule:nonzero;stroke:none"
           id="path170"
           inkscape:connector-curvature="0" /><path
           d="m 234.94,242.4 2.09,-9.76 2.1,-9.69 2.1,-9.57 2.1,-9.37 2.09,-9.12 2.1,-8.8 2.1,-8.42 2.1,-7.97 2.09,-7.45 2.1,-6.91 2.1,-6.39 2.1,-5.9 2.09,-5.44 2.1,-5.01 2.1,-4.63 2.1,-4.26 2.09,-3.93 2.1,-3.64 2.1,-3.37 2.1,-3.1 2.09,-2.87 2.1,-2.63 2.1,-2.41 2.1,-2.21 2.09,-2.02 2.1,-1.84 2.1,-1.68 2.1,-1.53 2.09,-1.4 2.1,-1.28 2.1,-1.18 2.1,-1.09 2.09,-1.03 2.1,-0.97 2.1,-0.93 2.1,-0.91 2.09,-0.89 2.1,-0.86 2.1,-0.83 2.1,-0.8 2.09,-0.77 2.1,-0.74 2.1,-0.69 2.1,-0.65 2.09,-0.61 2.1,-0.58 2.1,-0.54 2.1,-0.51 2.09,-0.49 2.1,-0.47 2.1,-0.45 2.1,-0.45 2.09,-0.45 2.1,-0.44 2.1,-0.44 2.1,-0.44 2.09,-0.43 2.1,-0.42 2.1,-0.41 2.1,-0.39 2.09,-0.38 2.1,-0.37 2.1,-0.35 2.09,-0.33 2.1,-0.31 2.1,-0.3 2.1,-0.29 2.09,-0.27 2.1,-0.26 2.1,-0.25 2.1,-0.24 2.09,-0.22 2.1,-0.22 2.1,-0.22 2.1,-0.2 2.09,-0.2 2.1,-0.2 2.1,-0.19 2.1,-0.2"
           style="fill:none;stroke:#00b0f6;stroke-width:1.05999994;stroke-linecap:butt;stroke-linejoin:round;stroke-miterlimit:1;stroke-dasharray:none;stroke-opacity:1"
           id="path172"
           inkscape:connector-curvature="0" /><path
           d="m 234.94,246.35 2.09,-10.15 2.1,-10.02 2.1,-9.79 2.1,-9.46 2.09,-9.06 2.1,-8.65 2.1,-8.24 2.1,-7.82 2.09,-7.39 2.1,-6.91 2.1,-6.42 2.1,-5.93 2.09,-5.41 2.1,-4.9 2.1,-4.44 2.1,-4.03 2.09,-3.69 2.1,-3.41 2.1,-3.16 2.1,-2.91 2.09,-2.66 2.1,-2.4 2.1,-2.16 2.1,-1.98 2.09,-1.86 2.1,-1.83 2.1,-1.86 2.1,-1.88 2.09,-1.85 2.1,-1.76 2.1,-1.64 2.1,-1.48 2.09,-1.34 2.1,-1.22 2.1,-1.12 2.1,-1.05 2.09,-0.96 2.1,-0.85 2.1,-0.72 2.1,-0.57 2.09,-0.44 2.1,-0.36 2.1,-0.33 2.1,-0.36 2.09,-0.42 2.1,-0.45 2.1,-0.45 2.1,-0.4 2.09,-0.34 2.1,-0.27 2.1,-0.25 2.1,-0.25 2.09,-0.31 2.1,-0.37 2.1,-0.4 2.1,-0.38 2.09,-0.32 2.1,-0.26 2.1,-0.2 2.1,-0.17 2.09,-0.19 2.1,-0.24 2.1,-0.3 2.09,-0.31 2.1,-0.28 2.1,-0.23 2.1,-0.16 2.09,-0.11 2.1,-0.1 2.1,-0.14 2.1,-0.2 2.09,-0.25 2.1,-0.28 2.1,-0.25 2.1,-0.15 2.09,-0.01 2.1,0.14 2.1,0.24 2.1,0.32 0,-6.22 -2.1,0.71 -2.1,0.63 -2.1,0.53 -2.09,0.38 -2.1,0.24 -2.1,0.14 -2.1,0.11 -2.09,0.13 -2.1,0.19 -2.1,0.25 -2.1,0.29 -2.09,0.28 -2.1,0.24 -2.1,0.18 -2.1,0.14 -2.09,0.13 -2.1,0.17 -2.1,0.24 -2.09,0.31 -2.1,0.35 -2.1,0.35 -2.1,0.31 -2.09,0.25 -2.1,0.22 -2.1,0.22 -2.1,0.27 -2.09,0.33 -2.1,0.4 -2.1,0.42 -2.1,0.41 -2.09,0.36 -2.1,0.31 -2.1,0.28 -2.1,0.29 -2.09,0.33 -2.1,0.42 -2.1,0.48 -2.1,0.53 -2.09,0.56 -2.1,0.58 -2.1,0.6 -2.1,0.67 -2.09,0.81 -2.1,0.99 -2.1,1.21 -2.1,1.38 -2.09,1.51 -2.1,1.58 -2.1,1.6 -2.1,1.63 -2.09,1.67 -2.1,1.74 -2.1,1.84 -2.1,1.93 -2.09,2.04 -2.1,2.14 -2.1,2.23 -2.1,2.35 -2.09,2.5 -2.1,2.74 -2.1,3.04 -2.1,3.41 -2.09,3.82 -2.1,4.21 -2.1,4.58 -2.1,4.95 -2.09,5.33 -2.1,5.76 -2.1,6.24 -2.1,6.79 -2.09,7.39 -2.1,7.96 -2.1,8.41 -2.1,8.76 -2.09,8.97 -2.1,9.08 -2.1,9.12 -2.1,9.14 -2.09,9.13 0,6.22 z"
           style="fill:#999999;fill-opacity:0.4;fill-rule:nonzero;stroke:none"
           id="path174"
           inkscape:connector-curvature="0" /><path
           d="m 234.94,243.24 2.09,-9.64 2.1,-9.58 2.1,-9.46 2.1,-9.26 2.09,-9.02 2.1,-8.7 2.1,-8.33 2.1,-7.89 2.09,-7.39 2.1,-6.85 2.1,-6.33 2.1,-5.84 2.09,-5.37 2.1,-4.93 2.1,-4.51 2.1,-4.12 2.09,-3.76 2.1,-3.41 2.1,-3.1 2.1,-2.82 2.09,-2.58 2.1,-2.37 2.1,-2.2 2.1,-2.06 2.09,-1.95 2.1,-1.88 2.1,-1.85 2.1,-1.81 2.09,-1.76 2.1,-1.7 2.1,-1.62 2.1,-1.52 2.09,-1.43 2.1,-1.3 2.1,-1.16 2.1,-1.02 2.09,-0.89 2.1,-0.76 2.1,-0.66 2.1,-0.57 2.09,-0.5 2.1,-0.45 2.1,-0.41 2.1,-0.38 2.09,-0.38 2.1,-0.37 2.1,-0.36 2.1,-0.36 2.09,-0.35 2.1,-0.34 2.1,-0.33 2.1,-0.33 2.09,-0.32 2.1,-0.32 2.1,-0.31 2.1,-0.3 2.09,-0.29 2.1,-0.28 2.1,-0.27 2.1,-0.26 2.09,-0.26 2.1,-0.24 2.1,-0.23 2.09,-0.22 2.1,-0.21 2.1,-0.2 2.1,-0.21 2.09,-0.19 2.1,-0.2 2.1,-0.19 2.1,-0.19 2.09,-0.2 2.1,-0.19 2.1,-0.19 2.1,-0.2 2.09,-0.19 2.1,-0.2 2.1,-0.2 2.1,-0.19"
           style="fill:none;stroke:#e76bf3;stroke-width:1.05999994;stroke-linecap:butt;stroke-linejoin:round;stroke-miterlimit:1;stroke-dasharray:none;stroke-opacity:1"
           id="path176"
           inkscape:connector-curvature="0" /></g></g><g
       id="g178" /><g
       id="g180" /><g
       id="g182"><text
         transform="matrix(1,0,0,-1,22.57,107.85)"
         style="font-variant:normal;font-weight:normal;font-size:10px;font-family:Helvetica;-inkscape-font-specification:Helvetica;writing-mode:lr-tb;fill:#7f7f7f;fill-opacity:1;fill-rule:nonzero;stroke:none"
         id="text184"><tspan
           x="0 5.5599999"
           y="0"
           sodipodi:role="line"
           id="tspan186">10</tspan></text>
<text
         transform="matrix(1,0,0,-1,22.57,184.54)"
         style="font-variant:normal;font-weight:normal;font-size:10px;font-family:Helvetica;-inkscape-font-specification:Helvetica;writing-mode:lr-tb;fill:#7f7f7f;fill-opacity:1;fill-rule:nonzero;stroke:none"
         id="text188"><tspan
           x="0 5.5599999"
           y="0"
           sodipodi:role="line"
           id="tspan190">20</tspan></text>
</g><g
       id="g192" /><g
       id="g194"><path
         d="m 36.53,111.44 4.25,0"
         style="fill:none;stroke:#7f7f7f;stroke-width:1.05999994;stroke-linecap:butt;stroke-linejoin:round;stroke-miterlimit:10;stroke-dasharray:none;stroke-opacity:1"
         id="path196"
         inkscape:connector-curvature="0" /><path
         d="m 36.53,188.13 4.25,0"
         style="fill:none;stroke:#7f7f7f;stroke-width:1.05999994;stroke-linecap:butt;stroke-linejoin:round;stroke-miterlimit:10;stroke-dasharray:none;stroke-opacity:1"
         id="path198"
         inkscape:connector-curvature="0" /></g><g
       id="g200" /><g
       id="g202" /><g
       id="g204" /><g
       id="g206" /><g
       id="g208" /><g
       id="g210"><path
         d="m 49.07,32.72 0,4.25"
         style="fill:none;stroke:#7f7f7f;stroke-width:1.05999994;stroke-linecap:butt;stroke-linejoin:round;stroke-miterlimit:10;stroke-dasharray:none;stroke-opacity:1"
         id="path212"
         inkscape:connector-curvature="0" /><path
         d="m 90.49,32.72 0,4.25"
         style="fill:none;stroke:#7f7f7f;stroke-width:1.05999994;stroke-linecap:butt;stroke-linejoin:round;stroke-miterlimit:10;stroke-dasharray:none;stroke-opacity:1"
         id="path214"
         inkscape:connector-curvature="0" /><path
         d="m 131.92,32.72 0,4.25"
         style="fill:none;stroke:#7f7f7f;stroke-width:1.05999994;stroke-linecap:butt;stroke-linejoin:round;stroke-miterlimit:10;stroke-dasharray:none;stroke-opacity:1"
         id="path216"
         inkscape:connector-curvature="0" /><path
         d="m 173.34,32.72 0,4.25"
         style="fill:none;stroke:#7f7f7f;stroke-width:1.05999994;stroke-linecap:butt;stroke-linejoin:round;stroke-miterlimit:10;stroke-dasharray:none;stroke-opacity:1"
         id="path218"
         inkscape:connector-curvature="0" /><path
         d="m 214.77,32.72 0,4.25"
         style="fill:none;stroke:#7f7f7f;stroke-width:1.05999994;stroke-linecap:butt;stroke-linejoin:round;stroke-miterlimit:10;stroke-dasharray:none;stroke-opacity:1"
         id="path220"
         inkscape:connector-curvature="0" /></g><g
       id="g222" /><g
       id="g224"><text
         transform="matrix(1,0,0,-1,46.29,22.71)"
         style="font-variant:normal;font-weight:normal;font-size:10px;font-family:Helvetica;-inkscape-font-specification:Helvetica;writing-mode:lr-tb;fill:#7f7f7f;fill-opacity:1;fill-rule:nonzero;stroke:none"
         id="text226"><tspan
           x="0"
           y="0"
           id="tspan228">0</tspan></text>
<text
         transform="matrix(1,0,0,-1,84.93,22.71)"
         style="font-variant:normal;font-weight:normal;font-size:10px;font-family:Helvetica;-inkscape-font-specification:Helvetica;writing-mode:lr-tb;fill:#7f7f7f;fill-opacity:1;fill-rule:nonzero;stroke:none"
         id="text230"><tspan
           x="0 5.5599999"
           y="0"
           sodipodi:role="line"
           id="tspan232">25</tspan></text>
<text
         transform="matrix(1,0,0,-1,126.36,22.71)"
         style="font-variant:normal;font-weight:normal;font-size:10px;font-family:Helvetica;-inkscape-font-specification:Helvetica;writing-mode:lr-tb;fill:#7f7f7f;fill-opacity:1;fill-rule:nonzero;stroke:none"
         id="text234"><tspan
           x="0 5.5599999"
           y="0"
           sodipodi:role="line"
           id="tspan236">50</tspan></text>
<text
         transform="matrix(1,0,0,-1,167.78,22.71)"
         style="font-variant:normal;font-weight:normal;font-size:10px;font-family:Helvetica;-inkscape-font-specification:Helvetica;writing-mode:lr-tb;fill:#7f7f7f;fill-opacity:1;fill-rule:nonzero;stroke:none"
         id="text238"><tspan
           x="0 5.5599999"
           y="0"
           sodipodi:role="line"
           id="tspan240">75</tspan></text>
<text
         transform="matrix(1,0,0,-1,206.43,22.71)"
         style="font-variant:normal;font-weight:normal;font-size:10px;font-family:Helvetica;-inkscape-font-specification:Helvetica;writing-mode:lr-tb;fill:#7f7f7f;fill-opacity:1;fill-rule:nonzero;stroke:none"
         id="text242"><tspan
           x="0 5.5599999 11.12"
           y="0"
           sodipodi:role="line"
           id="tspan244">100</tspan></text>
</g><g
       id="g246" /><g
       id="g248" /><g
       id="g250" /><g
       id="g252" /><g
       id="g254" /><g
       id="g256"><path
         d="m 234.94,32.72 0,4.25"
         style="fill:none;stroke:#7f7f7f;stroke-width:1.05999994;stroke-linecap:butt;stroke-linejoin:round;stroke-miterlimit:10;stroke-dasharray:none;stroke-opacity:1"
         id="path258"
         inkscape:connector-curvature="0" /><path
         d="m 276.36,32.72 0,4.25"
         style="fill:none;stroke:#7f7f7f;stroke-width:1.05999994;stroke-linecap:butt;stroke-linejoin:round;stroke-miterlimit:10;stroke-dasharray:none;stroke-opacity:1"
         id="path260"
         inkscape:connector-curvature="0" /><path
         d="m 317.79,32.72 0,4.25"
         style="fill:none;stroke:#7f7f7f;stroke-width:1.05999994;stroke-linecap:butt;stroke-linejoin:round;stroke-miterlimit:10;stroke-dasharray:none;stroke-opacity:1"
         id="path262"
         inkscape:connector-curvature="0" /><path
         d="m 359.21,32.72 0,4.25"
         style="fill:none;stroke:#7f7f7f;stroke-width:1.05999994;stroke-linecap:butt;stroke-linejoin:round;stroke-miterlimit:10;stroke-dasharray:none;stroke-opacity:1"
         id="path264"
         inkscape:connector-curvature="0" /><path
         d="m 400.64,32.72 0,4.25"
         style="fill:none;stroke:#7f7f7f;stroke-width:1.05999994;stroke-linecap:butt;stroke-linejoin:round;stroke-miterlimit:10;stroke-dasharray:none;stroke-opacity:1"
         id="path266"
         inkscape:connector-curvature="0" /></g><g
       id="g268" /><g
       id="g270"><text
         transform="matrix(1,0,0,-1,232.16,22.71)"
         style="font-variant:normal;font-weight:normal;font-size:10px;font-family:Helvetica;-inkscape-font-specification:Helvetica;writing-mode:lr-tb;fill:#7f7f7f;fill-opacity:1;fill-rule:nonzero;stroke:none"
         id="text272"><tspan
           x="0"
           y="0"
           id="tspan274">0</tspan></text>
<text
         transform="matrix(1,0,0,-1,270.8,22.71)"
         style="font-variant:normal;font-weight:normal;font-size:10px;font-family:Helvetica;-inkscape-font-specification:Helvetica;writing-mode:lr-tb;fill:#7f7f7f;fill-opacity:1;fill-rule:nonzero;stroke:none"
         id="text276"><tspan
           x="0 5.5599999"
           y="0"
           sodipodi:role="line"
           id="tspan278">25</tspan></text>
<text
         transform="matrix(1,0,0,-1,312.23,22.71)"
         style="font-variant:normal;font-weight:normal;font-size:10px;font-family:Helvetica;-inkscape-font-specification:Helvetica;writing-mode:lr-tb;fill:#7f7f7f;fill-opacity:1;fill-rule:nonzero;stroke:none"
         id="text280"><tspan
           x="0 5.5599999"
           y="0"
           sodipodi:role="line"
           id="tspan282">50</tspan></text>
<text
         transform="matrix(1,0,0,-1,353.65,22.71)"
         style="font-variant:normal;font-weight:normal;font-size:10px;font-family:Helvetica;-inkscape-font-specification:Helvetica;writing-mode:lr-tb;fill:#7f7f7f;fill-opacity:1;fill-rule:nonzero;stroke:none"
         id="text284"><tspan
           x="0 5.5599999"
           y="0"
           sodipodi:role="line"
           id="tspan286">75</tspan></text>
<text
         transform="matrix(1,0,0,-1,392.3,22.71)"
         style="font-variant:normal;font-weight:normal;font-size:10px;font-family:Helvetica;-inkscape-font-specification:Helvetica;writing-mode:lr-tb;fill:#7f7f7f;fill-opacity:1;fill-rule:nonzero;stroke:none"
         id="text288"><tspan
           x="0 5.5599999 11.12"
           y="0"
           sodipodi:role="line"
           id="tspan290">100</tspan></text>
</g><g
       id="g292" /><g
       id="g294" /><g
       id="g296" /><g
       id="g298" /><g
       id="g300"><text
         transform="matrix(1,0,0,-1,195.23,10.8)"
         style="font-variant:normal;font-weight:normal;font-size:12px;font-family:Helvetica;-inkscape-font-specification:Helvetica;writing-mode:lr-tb;fill:#000000;fill-opacity:1;fill-rule:nonzero;stroke:none"
         id="text302"><tspan
           x="0 9.3360004 16.007999 22.68 29.351999 33.228001 39.900002 43.236 45.900002 52.571999"
           y="0"
           sodipodi:role="line"
           id="tspan304">Generation</tspan></text>
</g><g
       id="g306" /><g
       id="g308"><text
         transform="matrix(0,1,1,0,19.42,121.93)"
         style="font-variant:normal;font-weight:normal;font-size:12px;font-family:Helvetica;-inkscape-font-specification:Helvetica;writing-mode:lr-tb;fill:#000000;fill-opacity:1;fill-rule:nonzero;stroke:none"
         id="text310"><tspan
           x="0 8.0039997 14.676 20.496 23.832001 27.167999 33.84 37.835999 41.832001 48.504002"
           y="0"
           sodipodi:role="line"
           id="tspan312">Abs. error</tspan></text>
</g><g
       id="g314" /><g
       id="g316" /><g
       id="g318" /><g
       id="g320" /><g
       id="g322" /><g
       id="g324"><path
         d="m 418.96,80.01 53.11,0 0,136.34 -53.11,0 0,-136.34 z"
         style="fill:#ffffff;fill-opacity:1;fill-rule:nonzero;stroke:none"
         id="path326"
         inkscape:connector-curvature="0" /></g><g
       id="g328" /><g
       id="g330"><text
         transform="matrix(1,0,0,-1,423.21,205.07)"
         style="font-variant:normal;font-weight:bold;font-size:10px;font-family:Helvetica;-inkscape-font-specification:Helvetica-Bold;writing-mode:lr-tb;fill:#000000;fill-opacity:1;fill-rule:nonzero;stroke:none"
         id="text332"><tspan
           x="0 6.6700001 14.45 17.23 24.450001 27.23 32.790001"
           y="0"
           sodipodi:role="line"
           id="tspan334">XO Bias</tspan></text>
</g><g
       id="g336" /><g
       id="g338"><path
         d="m 423.21,176.42 23.04,0 0,23.04 -23.04,0 0,-23.04 z"
         style="fill:#f2f2f2;fill-opacity:1;fill-rule:nonzero;stroke:#ffffff;stroke-width:1.05999994;stroke-linecap:round;stroke-linejoin:round;stroke-miterlimit:10;stroke-dasharray:none;stroke-opacity:1"
         id="path340"
         inkscape:connector-curvature="0" /></g><g
       id="g342" /><g
       id="g344"><path
         d="m 423.21,176.42 23.04,0 0,23.04 -23.04,0 0,-23.04 z"
         style="fill:#999999;fill-opacity:0.4;fill-rule:nonzero;stroke:none"
         id="path346"
         inkscape:connector-curvature="0" /><path
         d="m 425.51,187.94 18.43,0"
         style="fill:none;stroke:#f8766d;stroke-width:1.05999994;stroke-linecap:butt;stroke-linejoin:round;stroke-miterlimit:10;stroke-dasharray:none;stroke-opacity:1"
         id="path348"
         inkscape:connector-curvature="0" /></g><g
       id="g350" /><g
       id="g352"><path
         d="m 423.21,153.38 23.04,0 0,23.04 -23.04,0 0,-23.04 z"
         style="fill:#f2f2f2;fill-opacity:1;fill-rule:nonzero;stroke:#ffffff;stroke-width:1.05999994;stroke-linecap:round;stroke-linejoin:round;stroke-miterlimit:10;stroke-dasharray:none;stroke-opacity:1"
         id="path354"
         inkscape:connector-curvature="0" /></g><g
       id="g356" /><g
       id="g358"><path
         d="m 423.21,153.38 23.04,0 0,23.04 -23.04,0 0,-23.04 z"
         style="fill:#999999;fill-opacity:0.4;fill-rule:nonzero;stroke:none"
         id="path360"
         inkscape:connector-curvature="0" /><path
         d="m 425.51,164.9 18.43,0"
         style="fill:none;stroke:#a3a500;stroke-width:1.05999994;stroke-linecap:butt;stroke-linejoin:round;stroke-miterlimit:10;stroke-dasharray:none;stroke-opacity:1"
         id="path362"
         inkscape:connector-curvature="0" /></g><g
       id="g364" /><g
       id="g366"><path
         d="m 423.21,130.34 23.04,0 0,23.04 -23.04,0 0,-23.04 z"
         style="fill:#f2f2f2;fill-opacity:1;fill-rule:nonzero;stroke:#ffffff;stroke-width:1.05999994;stroke-linecap:round;stroke-linejoin:round;stroke-miterlimit:10;stroke-dasharray:none;stroke-opacity:1"
         id="path368"
         inkscape:connector-curvature="0" /></g><g
       id="g370" /><g
       id="g372"><path
         d="m 423.21,130.34 23.04,0 0,23.04 -23.04,0 0,-23.04 z"
         style="fill:#999999;fill-opacity:0.4;fill-rule:nonzero;stroke:none"
         id="path374"
         inkscape:connector-curvature="0" /><path
         d="m 425.51,141.86 18.43,0"
         style="fill:none;stroke:#00bf7d;stroke-width:1.05999994;stroke-linecap:butt;stroke-linejoin:round;stroke-miterlimit:10;stroke-dasharray:none;stroke-opacity:1"
         id="path376"
         inkscape:connector-curvature="0" /></g><g
       id="g378" /><g
       id="g380"><path
         d="m 423.21,107.3 23.04,0 0,23.04 -23.04,0 0,-23.04 z"
         style="fill:#f2f2f2;fill-opacity:1;fill-rule:nonzero;stroke:#ffffff;stroke-width:1.05999994;stroke-linecap:round;stroke-linejoin:round;stroke-miterlimit:10;stroke-dasharray:none;stroke-opacity:1"
         id="path382"
         inkscape:connector-curvature="0" /></g><g
       id="g384" /><g
       id="g386"><path
         d="m 423.21,107.3 23.04,0 0,23.04 -23.04,0 0,-23.04 z"
         style="fill:#999999;fill-opacity:0.4;fill-rule:nonzero;stroke:none"
         id="path388"
         inkscape:connector-curvature="0" /><path
         d="m 425.51,118.82 18.43,0"
         style="fill:none;stroke:#00b0f6;stroke-width:1.05999994;stroke-linecap:butt;stroke-linejoin:round;stroke-miterlimit:10;stroke-dasharray:none;stroke-opacity:1"
         id="path390"
         inkscape:connector-curvature="0" /></g><g
       id="g392" /><g
       id="g394"><path
         d="m 423.21,84.26 23.04,0 0,23.04 -23.04,0 0,-23.04 z"
         style="fill:#f2f2f2;fill-opacity:1;fill-rule:nonzero;stroke:#ffffff;stroke-width:1.05999994;stroke-linecap:round;stroke-linejoin:round;stroke-miterlimit:10;stroke-dasharray:none;stroke-opacity:1"
         id="path396"
         inkscape:connector-curvature="0" /></g><g
       id="g398" /><g
       id="g400"><path
         d="m 423.21,84.26 23.04,0 0,23.04 -23.04,0 0,-23.04 z"
         style="fill:#999999;fill-opacity:0.4;fill-rule:nonzero;stroke:none"
         id="path402"
         inkscape:connector-curvature="0" /><path
         d="m 425.51,95.78 18.43,0"
         style="fill:none;stroke:#e76bf3;stroke-width:1.05999994;stroke-linecap:butt;stroke-linejoin:round;stroke-miterlimit:10;stroke-dasharray:none;stroke-opacity:1"
         id="path404"
         inkscape:connector-curvature="0" /></g><g
       id="g406" /><g
       id="g408"><text
         transform="matrix(1,0,0,-1,449.13,184.35)"
         style="font-variant:normal;font-weight:normal;font-size:10px;font-family:Helvetica;-inkscape-font-specification:Helvetica;writing-mode:lr-tb;fill:#000000;fill-opacity:1;fill-rule:nonzero;stroke:none"
         id="text410"><tspan
           x="0"
           y="0"
           id="tspan412">0</tspan></text>
</g><g
       id="g414" /><g
       id="g416"><text
         transform="matrix(1,0,0,-1,449.13,161.31)"
         style="font-variant:normal;font-weight:normal;font-size:10px;font-family:Helvetica;-inkscape-font-specification:Helvetica;writing-mode:lr-tb;fill:#000000;fill-opacity:1;fill-rule:nonzero;stroke:none"
         id="text418"><tspan
           x="0 5.5599999 8.3400002 13.9"
           y="0"
           sodipodi:role="line"
           id="tspan420">0.25</tspan></text>
</g><g
       id="g422" /><g
       id="g424"><text
         transform="matrix(1,0,0,-1,449.13,138.27)"
         style="font-variant:normal;font-weight:normal;font-size:10px;font-family:Helvetica;-inkscape-font-specification:Helvetica;writing-mode:lr-tb;fill:#000000;fill-opacity:1;fill-rule:nonzero;stroke:none"
         id="text426"><tspan
           x="0 5.5599999 8.3400002"
           y="0"
           sodipodi:role="line"
           id="tspan428">0.5</tspan></text>
</g><g
       id="g430" /><g
       id="g432"><text
         transform="matrix(1,0,0,-1,449.13,115.23)"
         style="font-variant:normal;font-weight:normal;font-size:10px;font-family:Helvetica;-inkscape-font-specification:Helvetica;writing-mode:lr-tb;fill:#000000;fill-opacity:1;fill-rule:nonzero;stroke:none"
         id="text434"><tspan
           x="0 5.5599999 8.3400002 13.9"
           y="0"
           sodipodi:role="line"
           id="tspan436">0.75</tspan></text>
</g><g
       id="g438" /><g
       id="g440"><text
         transform="matrix(1,0,0,-1,449.13,92.19)"
         style="font-variant:normal;font-weight:normal;font-size:10px;font-family:Helvetica;-inkscape-font-specification:Helvetica;writing-mode:lr-tb;fill:#000000;fill-opacity:1;fill-rule:nonzero;stroke:none"
         id="text442"><tspan
           x="0"
           y="0"
           id="tspan444">1</tspan></text>
</g><g
       id="g446" /><g
       id="g448" /><g
       id="g450" /><g
       id="g452" /><g
       id="g454" /><g
       id="g456" /><g
       id="g458" /><g
       id="g460" /><g
       id="g462" /><g
       id="g464"><text
         transform="matrix(1,0,0,-1,67.58,279.45)"
         style="font-variant:normal;font-weight:normal;font-size:14px;font-family:Helvetica;-inkscape-font-specification:Helvetica;writing-mode:lr-tb;fill:#000000;fill-opacity:1;fill-rule:nonzero;stroke:none"
         id="text466"><tspan
           x="0 3.892 15.554 23.337999 31.122 38.122002 42.014 45.905998 53.689999 57.582001 61.473999 68.473999 73.136002 80.919998 87.919998 94.919998 102.494 109.144 116.928 121.59 125.482 133.26601 136.37399 144.158 151.158 155.05 162.62399 169.274 177.058 181.72 185.612 189.504 192.612 204.274 211.84801 215.74001 219.632 226.632 229.74001 237.524 245.308 249.2 253.862 261.646 269.42999 274.09201 281.87601 288.87601 295.87601 298.98401 306.76801"
           y="0"
           sodipodi:role="line"
           id="tspan468">Impact of crossover bias over time, sine regression</tspan></text>
</g><g
       id="g470" /><g
       id="g472" /></g></svg>